<svg enable-background="new 0 0 255.1 324.5" viewBox="0 0 255.1 324.5" xmlns="http://www.w3.org/2000/svg"><path d="m220.7 153.7h-8.5v51.1h8.5c14.1 0 25.6-11.4 25.6-25.6s-11.5-25.5-25.6-25.5z" fill="#fedac6"/><path d="m7.7 179.3c0 14.1 11.4 25.6 25.6 25.6h8.5v-51.1h-8.5c-14.2-.1-25.6 11.4-25.6 25.5z" fill="#f5c4b0"/><path d="m220.7 153.7 10.1-51.7c3.3-19.6-10-38.2-29.6-41.5-2-.3-4-.5-6-.5-5.1-15.3-19.4-25.5-35.4-25.6h-101l-17-25.5-8.5 8.5c-23.5 23.5-23.5 61.7 0 85.2h153.4z" fill="#fecb66"/><path d="m220.7 153.7v48.6c0 24-6.1 47.7-17.8 68.7-15.3 27.6-44.4 44.7-75.9 44.6-31.5 0-60.6-17.1-75.9-44.6-11.7-21-17.8-44.6-17.8-68.7v-99.7h153.4z" fill="#fedac6"/><path d="m67.3 102.6h-34.1v99.7c0 24 6.1 47.7 17.8 68.7 8.5 15.3 21.5 27.6 37.1 35.3-29.3-84.4-20.8-203.7-20.8-203.7z" fill="#f5c4b0"/><path d="m17.4 45.7c-5.1 20.4 1 42 15.8 56.9h136.3c-96.7 0-136.3-34.1-152.1-56.9z" fill="#f5ad76"/><path d="m220.7 213.4h-8.5v-17h8.5c9.4 0 17-7.6 17-17s-7.6-17-17-17h-8.5v-17h8.5c18.8 0 34.1 15.3 34.1 34.1s-15.3 33.9-34.1 33.9z"/><path d="m41.8 213.4h-8.5c-18.8 0-34.1-15.3-34.1-34.1s15.3-34.1 34.1-34.1h8.5v17h-8.5c-9.4 0-17 7.6-17 17s7.6 17 17 17h8.5z"/><path d="m135.5 230.4h-25.6c-2.7 0-5.2-1.3-6.8-3.4s-2.1-4.9-1.4-7.5l17-59.6 16.4 4.7-13.9 48.8h14.3z"/><path d="m127 324.1c-34.6 0-66.6-18.8-83.4-49-12.3-22.2-18.9-47.4-18.9-72.8v-99.7c0-4.7 3.8-8.5 8.5-8.5h153.4c2.8 0 5.5 1.4 7.1 3.8l34.1 51.1c.9 1.4 1.4 3 1.4 4.7v48.6c0 25.4-6.5 50.6-18.9 72.8-16.8 30.3-48.7 49-83.3 49zm0-17c28.4 0 54.7-15.4 68.5-40.3 10.9-19.7 16.7-42 16.7-64.5v-46l-30.1-45.2h-140.3v91.2c0 22.5 5.8 44.8 16.7 64.5 13.8 24.9 40 40.3 68.5 40.3-.1 0 0 0 0 0z"/><path d="m119.9 264.5h-10v-17h10c13.3 0 25.7-5.2 35.1-14.6l12 12.1c-12.5 12.6-29.3 19.5-47.1 19.5z"/><circle cx="75.9" cy="170.8" r="17"/><ellipse cx="178.1" cy="170.8" rx="17" ry="17" transform="matrix(.1602 -.9871 .9871 .1602 -19.0067 319.2241)"/><path d="m229.1 163.7-16.8-2.8 10.1-60.2c1.2-7.3-.5-14.6-4.7-20.5-4.3-6-10.6-10-17.9-11.2-1.5-.3-3.2-.4-4.6-.4-3.7 0-6.9-2.3-8.1-5.8-4-11.9-15-19.8-27.4-19.8h-100.9c-2.8 0-5.5-1.4-7.1-3.8l-11.3-16.9-1.2 1.2c-9.7 9.7-15.1 22.7-15.1 36.5s5.4 26.8 15.1 36.6l-12 12.1c-26.8-26.8-26.8-70.4 0-97.3l8.5-8.5c1.8-1.8 4.3-2.7 6.9-2.5 2.5.2 4.8 1.6 6.2 3.7l14.5 21.8h96.3c17.8 0 33.7 10.2 41.3 25.9.5.1 1 .1 1.6.2 11.8 2 22 8.4 28.9 18.1s9.6 21.5 7.7 33.2z"/></svg>