<svg version="1.1" id="Layer_1" xmlns="http://www.w3.org/2000/svg" xmlns:xlink="http://www.w3.org/1999/xlink" x="0" y="0" viewBox="0 0 512 512" xml:space="preserve" enable-background="new 0 0 512 512"><path d="M370.759,375.172H17.655C7.904,375.172,0,367.268,0,357.517V57.379	c0-9.751,7.904-17.655,17.655-17.655h353.103c9.751,0,17.655,7.904,17.655,17.655v300.138	C388.414,367.268,380.51,375.172,370.759,375.172z" fill="#E4EAF8"/><path d="M176.552,375.172h194.207c9.751,0,17.655-7.904,17.655-17.655V251.586H220.69	c-24.376,0-44.138,19.762-44.138,44.138V375.172z" fill="#D5DCED"/><path d="M247.172,269.241H44.138c-4.875,0-8.828-3.953-8.828-8.828V119.172c0-4.875,3.953-8.828,8.828-8.828	h203.034c4.875,0,8.828,3.953,8.828,8.828v141.241C256,265.289,252.047,269.241,247.172,269.241z" fill="#0096DC"/><path d="M370.759,39.724H35.31v26.483c0,4.875,3.953,8.828,8.828,8.828h344.276V57.379	C388.414,47.628,380.51,39.724,370.759,39.724z" fill="#D5DCED"/><path d="M291.31,163.31h61.793c4.875,0,8.828-3.953,8.828-8.828v-35.31c0-4.875-3.953-8.828-8.828-8.828	H291.31c-4.875,0-8.828,3.953-8.828,8.828v35.31C282.483,159.358,286.435,163.31,291.31,163.31z" fill="#FFDC64"/><path d="M291.31,242.759h61.793c4.875,0,8.828-3.953,8.828-8.828v-35.31c0-4.875-3.953-8.828-8.828-8.828	H291.31c-4.875,0-8.828,3.953-8.828,8.828v35.31C282.483,238.806,286.435,242.759,291.31,242.759z" fill="#00C3FF"/><path d="M158.897,313.379H44.138c-4.879,0-8.828-3.953-8.828-8.828s3.948-8.828,8.828-8.828h114.759	c4.879,0,8.828,3.953,8.828,8.828S163.776,313.379,158.897,313.379z" fill="#707487"/><g><path d="M61.793,348.69H44.138c-4.879,0-8.828-3.953-8.828-8.828s3.948-8.828,8.828-8.828h17.655 c4.879,0,8.828,3.953,8.828,8.828S66.673,348.69,61.793,348.69z" fill="#959CB5"/><path d="M132.414,348.69h-35.31c-4.879,0-8.828-3.953-8.828-8.828s3.948-8.828,8.828-8.828h35.31 c4.879,0,8.828,3.953,8.828,8.828S137.293,348.69,132.414,348.69z" fill="#959CB5"/></g><path d="M273.655,269.241l-37.896-37.896c-5.561-5.561-15.07-1.622-15.07,6.242v31.654l0,0	c-14.626,0-26.483,11.857-26.483,26.483v150.069c0,14.626,11.857,26.483,26.483,26.483h264.828	c14.626,0,26.483-11.857,26.483-26.483V295.724c0-14.626-11.857-26.483-26.483-26.483H273.655z" fill="#00C3FF"/><path d="M185.379,269.241v-19.591c0-8.102-5.514-15.164-13.373-17.128l-15.251-3.812	c-3.929-0.982-6.687-4.513-6.687-8.564v-6.319c5.255-3.058,8.828-8.689,8.828-15.207v-30.897c0-12.189-9.88-22.069-22.069-22.069	H128c-12.189,0-22.069,9.88-22.069,22.069v30.897c0,6.518,3.573,12.148,8.828,15.207v6.319c0,4.051-2.756,7.582-6.687,8.564	l-15.251,3.812c-7.859,1.965-13.373,9.026-13.373,17.128v19.591" fill="#F0C087"/><path d="M136.828,145.655H128c-12.189,0-22.069,9.88-22.069,22.069v13.241c0,0,26.483,0,52.966-8.828v-4.414	C158.897,155.535,149.016,145.655,136.828,145.655z" fill="#694B4B"/><rect x="317.793" y="39.724" width="35.31" height="35.31" fill="#FFF082"/><rect x="282.483" y="39.724" width="35.31" height="35.31" fill="#FF5050"/><path d="M388.414,75.034h-35.31v-35.31h17.655c9.751,0,17.655,7.904,17.655,17.655V75.034z" fill="#A0FFB4"/><g><path d="M172.006,232.523l-12.22-3.054c-6.444,8.058-16.246,13.29-27.372,13.29 c-11.126,0-20.928-5.231-27.373-13.29l-12.22,3.054c-7.859,1.964-13.373,9.026-13.373,17.128v19.591h105.931v-19.591 C185.379,241.549,179.865,234.487,172.006,232.523z" fill="#5B5D6E"/><path d="M291.272,356.284v52.966c0,4.875,3.953,8.828,8.828,8.828H406.03c4.875,0,8.828-3.953,8.828-8.828 v-52.966H291.272z" fill="#5B5D6E"/></g><g><path d="M450.168,348.672l-17.655,0.018l0.086,61.802c0.009,4.871,3.957,8.819,8.828,8.819h0.009 c4.879-0.009,8.828-3.966,8.819-8.836L450.168,348.672z" fill="#464655"/><path d="M291.272,384.559l48.146,12.839c4.45,1.186,9.042,1.789,13.647,1.789s9.197-0.601,13.647-1.789 l48.146-12.839v-28.276H291.272V384.559z" fill="#464655"/></g><path d="M343.967,314.571l-112.263,29.937c-3.019,0.806-3.019,5.09,0,5.895l112.263,29.937	c5.961,1.59,12.235,1.59,18.196,0l112.263-29.937c3.019-0.806,3.019-5.09,0-5.895l-112.263-29.937	C356.202,312.982,349.928,312.982,343.967,314.571z" fill="#707487"/><circle cx="441.335" cy="436.966" r="8.828" fill="#5B5D6E"/></svg>