<svg version="1.1" id="Livello_1" xmlns="http://www.w3.org/2000/svg" xmlns:xlink="http://www.w3.org/1999/xlink" x="0" y="0" viewBox="0 0 6000 2000" xml:space="preserve" enable-background="new 0 0 6000 2000"><style type="text/css">.st0{fill:#bc8655}.st1{fill:#3f4c73}.st2{fill:#82a29d}.st3{fill:#566288}.st4{fill:#95b3af}.st5{fill:#9e7042}.st6{fill:#c59269}.st7{fill:#f3c48d}.st8{fill:#fbcaa8}.st9{fill:#ffd9c3}.st10{fill:#f2bd9d}.st11{fill:#e8d3b8}.st12{fill:#e1ae94}.st13{fill:#fb885e}.st14{fill:#ffd59d}.st15{fill:#ffa389}.st16{fill:#f46a5d}.st17{fill:#ffedd5}</style><g id="Layer_1"><path class="st0" d="M1503.6,1824.3c-58.3-9.7-222.3-51.6-222.3-107.4c0-8.5-110.6,4.2-110.6,4.2l6.3,140.1h344.5 C1521.5,1861.2,1554.1,1832.7,1503.6,1824.3"/><path class="st1" d="M1289.9,1302.1c-5-28.5-10.6-53.4-16.6-74c-10.2-34.6-22.2-59.2-37.9-77.2c-28.7-33.1-72.4-53.7-129.7-61.4 c-29.1-3.9-54.3-3.3-63.5-2.9h-195c-22.5,0-44.1,8.9-60.1,24.9c-15.9,15.9-24.9,37.5-24.9,60.1s8.9,44.1,24.9,60.1 c15.9,15.9,37.5,24.9,60.1,24.9h197.1c1.8,0,3.7-0.1,5.5-0.2c0.1,0,12.1-0.6,27,0.9c14.7,1.4,24.2,4.1,29.2,6 c3.5,9.1,10.4,30.9,17.8,75.9c6.1,36.6,9.1,68.4,9.2,68.7c0,0.1,0,0.2,0,0.3l35.6,363h170.7l-37.2-379.6 C1301.8,1387.7,1297.8,1347.3,1289.9,1302.1"/><path class="st2" d="M1289.9,1302.1c-5-28.5-10.6-53.4-16.6-74c-10.2-34.6-22.2-59.2-37.9-77.2c-28.7-33.1-72.4-53.7-129.7-61.4 c-29.1-3.9-54.3-3.3-63.5-2.9h-195c-22.5,0-44.1,8.9-60.1,24.9c-15.9,15.9-24.9,37.5-24.9,60.1s8.9,44.1,24.9,60.1 c15.9,15.9,37.5,24.9,60.1,24.9h197.1c1.8,0,3.7-0.1,5.5-0.2c0.1,0,12.1-0.6,27,0.9c14.7,1.4,24.2,4.1,29.2,6 c3.5,9.1,10.4,30.9,17.8,75.9c6.1,36.6,9.1,68.4,9.2,68.7c0,0.1,0,0.2,0,0.3l35.6,363h170.7l-37.2-379.6 C1301.8,1387.7,1297.8,1347.3,1289.9,1302.1"/><path class="st3" d="M1013,1256.2c-1.9,0-3.7,0-5.6-0.1l-199.6-9.4c12,6.3,25.5,9.7,39.4,9.7h173 C1015.8,1256.2,1013.1,1256.2,1013,1256.2"/><path class="st4" d="M1289.9,1302.1c-5-28.5-10.6-53.4-16.6-74c-10.2-34.6-22.2-59.2-37.9-77.2c-28.7-33.1-72.4-53.7-129.7-61.4 c-16.3-2.2-31.4-3-43.1-3.2c5,0.7,10.2,1.5,15.5,2.5c58.1,10.6,101.6,33.7,129.3,68.8c15.1,19.1,26.2,44.7,35,80.6 c5.2,21.3,9.7,46.9,13.4,76.3c5.9,46.5,8,87.9,8.2,91.7l18.5,364.8h56.9l-37.2-379.6C1301.8,1387.7,1297.8,1347.3,1289.9,1302.1"/><path class="st0" d="M1617.5,1837h316.1v-783.4h-316.1V1837z"/><path class="st5" d="M1617.5,1172.3l316.1,44.1v-162.8h-316.1V1172.3z"/><path class="st0" d="M2076,986.5h-782.8c-15.3,0-27.7,12.4-27.7,27.7v49.9c0,15.3,12.4,27.7,27.7,27.7H2076 c15.3,0,27.7-12.4,27.7-27.7v-49.9C2103.7,999,2091.3,986.5,2076,986.5"/><path class="st6" d="M2076,986.5h-782.8c-15.3,0-27.7,12.4-27.7,27.7v25.6c0-15.3,12.4-27.7,27.7-27.7H2076 c15.3,0,27.7,12.4,27.7,27.7v-25.6C2103.7,999,2091.3,986.5,2076,986.5"/><path class="st7" d="M1323,987.1h342.4v-72L1323,959V987.1z"/><path class="st8" d="M1391.5,841.3l-1.9,0.4l48.3,31.2l82.8-32.4l-62.9-18.7L1391.5,841.3z"/><path class="st8" d="M1572.6,870.1l-49.2-29.3c-6.4-3.8-14.6-1.7-18.4,4.7c-3.8,6.3-1.7,14.6,4.7,18.3l49.2,29.3 c6.4,3.8,14.6,1.7,18.4-4.7C1581,882.1,1579,873.9,1572.6,870.1"/><path class="st8" d="M1513.9,838.5l-57.2,3.8c-7.4,0.5-13,6.9-12.5,14.3c0.5,7.4,6.9,13,14.2,12.5l57.2-3.8 c7.4-0.5,13-6.9,12.5-14.2C1527.7,843.6,1521.3,838,1513.9,838.5"/><path class="st8" d="M1407.8,853.6l-18.4,18.6l-7.8,21.2l-44.2,17.3c0,0,59.7,31.9,78.4,30.8c18.7-1.1,17.8,0,29.7-5.8 c27.2-13.2-9-33-9-33l15.2-29.8l48.8,28.9l17.8-19.4l-46.4-39.5L1407.8,853.6z"/><path class="st8" d="M1522.5,886.8c-3.4-6.6-11.5-9.1-18-5.7c-6.6,3.4-9.1,11.5-5.7,18L1525,950c3.4,6.6,11.5,9.1,18.1,5.7 c6.6-3.4,9.1-11.5,5.7-18L1522.5,886.8z"/><path class="st8" d="M1496.7,906.2c-3.4-6.6-11.5-9.1-18.1-5.7c-6.6,3.4-9.1,11.5-5.7,18l26.4,50.9c3.4,6.6,11.5,9.1,18.1,5.7 c6.6-3.4,9.1-11.5,5.7-18L1496.7,906.2z"/><path class="st8" d="M1467.3,918.8c-3.4-6.6-11.5-9.1-18.1-5.7c-6.6,3.4-9.1,11.5-5.7,18l21.4,41.2c3.4,6.6,11.5,9.1,18.1,5.7 c6.6-3.4,9.1-11.5,5.7-18L1467.3,918.8z"/><path class="st8" d="M1426.5,879.5l54,44.7l15.4-19.3l-47.2-57.7L1426.5,879.5z"/><path class="st8" d="M1406.1,918.1l46.4,18.7l14.2-19.3l-46.1-55.4L1406.1,918.1z"/><path class="st9" d="M1542.8,932.8c-2-3.4-15.7,4.5-13.8,7.9l3.8,6.6c2,3.4,6.6,4.4,10.4,2.2c3.8-2.2,5.3-6.7,3.3-10.1 L1542.8,932.8z"/><path class="st9" d="M1571.4,873.1l-6.6-3.8c-3.4-2-11.4,11.8-8,13.7l6.6,3.8c3.4,2,7.9,0.5,10.1-3.3 C1575.8,879.8,1574.8,875.1,1571.4,873.1"/><path class="st9" d="M1516.3,950.8c-1.9-3.4-15.7,4.5-13.8,7.9l3.8,6.6c2,3.4,6.6,4.4,10.5,2.2c3.8-2.2,5.3-6.7,3.3-10.1 L1516.3,950.8z"/><path class="st9" d="M1482.3,955.9c-2-3.4-15.7,4.5-13.8,7.9l3.8,6.6c1.9,3.4,6.6,4.4,10.4,2.2c3.8-2.2,5.3-6.7,3.3-10.1 L1482.3,955.9z"/><path class="st8" d="M1517.2,841c-0.6-0.3-1.3-0.1-1.6,0.5l-7.9,15.4c-0.3,0.6,0,1.3,0.5,1.6c0.6,0.3,1.3,0.1,1.6-0.5l7.9-15.4 C1518.1,842,1517.8,841.3,1517.2,841"/><path class="st8" d="M1522.2,843.7c-0.6-0.3-1.3-0.1-1.6,0.5l-4.9,9.5c-0.3,0.6,0,1.3,0.5,1.6c0.6,0.3,1.3,0.1,1.6-0.5l4.9-9.6 C1523,844.7,1522.8,844,1522.2,843.7"/><path class="st9" d="M1516.4,887.5l-9.2,5.5c-0.6,0.3-0.7,1.1-0.4,1.6c0.3,0.6,1.1,0.7,1.6,0.4l9.2-5.5c0.6-0.3,0.7-1.1,0.4-1.6 C1517.7,887.4,1517,887.2,1516.4,887.5"/><path class="st9" d="M1488.8,904l-9.2,5.5c-0.5,0.3-0.7,1.1-0.4,1.6c0.4,0.6,1.1,0.7,1.6,0.4l9.2-5.5c0.6-0.3,0.7-1.1,0.4-1.6 C1490.1,903.8,1489.3,903.7,1488.8,904"/><path class="st8" d="M1429.2,831.1l-104.3,27.7l-35.7,47.8l33.5,42.1l98.7-7.8c16.3-0.2,42.3-32.7,42-57.8 C1463,858,1445.4,830.9,1429.2,831.1"/><path class="st4" d="M778,555C690.2,555,619,584,619,619.9V1188c0,35.9,71.2,64.9,159.1,64.9c87.8,0,122.2-17,122.2-52.8 l36.9-484.2c0,0,2.2-53.8-17.5-88C891.4,579,865.9,555,778,555"/><path class="st2" d="M611.9,1146.8l7.1,41.2c0,35.9,71.2,64.9,159.1,64.9c87.8,0,161.6-19.7,161.6-55.6l-30.8-110.7L611.9,1146.8z"/><path class="st10" d="M789.2,312.8H740c-31.5,0-57,14.3-57,32v231.9c0,17.7,25.5,32,57,32h49.2c31.5,0,57-14.3,57-32V344.8 C846.2,327.1,820.7,312.8,789.2,312.8"/><path class="st11" d="M928.3,347.3c-5.1,0-15.2,6.7-17.6,12.3c5.9,1.9,10.1,7.4,10.1,13.9c0,6.6-4.4,12.2-10.3,14 c1.9,5.4,12.6,11.6,17.8,11.6c5.7,0,10.4-4.7,10.4-10.4l3.5-25.3C943.1,352.3,934,347.3,928.3,347.3"/><path class="st8" d="M737.2,472.9c0,28.3,37.6,70.4,94,70.4c61.4,0,111.9-42.1,111.9-70.4V225.5h-206V472.9z"/><path class="st12" d="M685.3,230.6c-1.2,13.6,2.6,28.9,14,34.5c24.5,11.8,46.9-9.2,102.2,5.8c39.4,10.7,76.9,20.1,110,15.7 c13.4-1.8,23.7-8,31.7-16.5v-44.6H685.7L685.3,230.6z"/><path class="st10" d="M795.2,334.1c-10.7,0-27.5,9.3-25.7,29.9l6.4,46.8c0,10.7,8.6,19.3,19.3,19.3c10.6,0,33.6-13.7,33.6-24.4 l-0.1-44.9C828.7,350.2,805.9,334.1,795.2,334.1"/><path class="st10" d="M916.9,414.8c0,6.4,9.3,11.6,20.8,11.6c1.9,0,3.7-0.1,5.4-0.4v-22.4c-1.7-0.3-3.6-0.4-5.4-0.4 C926.2,403.2,916.9,408.4,916.9,414.8"/><path class="st8" d="M934.8,297.3l-28.1,118.4c0,0,15.2,1.6,19.7,1.6c12.2,0,35.5-1,39.3-8.5c6-11.7-6.8-33.4-15.2-56.8 C940.8,325.3,934.8,297.3,934.8,297.3"/><path class="st9" d="M936.8,305.8c1.3,14.8,3.8,33.9,8.9,48.1c8.4,23.4,18.3,44.7,12.3,56.3c-1.4,2.8-5.6,4.7-10.9,6 c8.7-1.1,16.5-3.3,18.6-7.3c6-11.7-6.8-33.4-15.2-56.8C944.1,334.3,939.3,316.1,936.8,305.8"/><path class="st0" d="M898.2,319.3c-6.6,0-12,5.4-12,12c0,6.6,5.4,12,12,12c6.6,0,12-5.4,12-12C910.2,324.6,904.8,319.3,898.2,319.3"/><path class="st12" d="M895.8,444.8c9,11,26.6,18.9,47.3,20.2v-14.9c-17.1-0.4-33.1-2.3-47.2-5.4L895.8,444.8z"/><path class="st12" d="M912.3,296.5h-31.5c-3.1,0-5.6,2.5-5.6,5.6c0,3.1,2.5,5.6,5.6,5.6h31.5c3.1,0,5.6-2.5,5.6-5.6 C917.9,299,915.4,296.5,912.3,296.5"/><path class="st0" d="M761.3,208.5c0-15.3-43.1,1.3-58.4,1.3c-15.3,0-51.4,7.3-47.3,45.4l19.6,163.1c0,8.6,11.7,20.4,22.3,17 c8.1-2.6,101.5-51.1,101.5-57.8c0,0,11.9-115.3,24.5-156.3C836.1,180.2,761.3,208.5,761.3,208.5"/><path class="st8" d="M797.6,325.2c-10.7,0-27.5,9.3-25.7,29.9l6.4,46.8c0,10.7,8.6,19.3,19.3,19.3c10.6,0,33.6-13.7,33.6-24.4 l-0.1-44.9C831,341.3,808.2,325.2,797.6,325.2"/><path class="st12" d="M809.1,373.5c0-6.5,4.2-12,10.1-13.9c-2.3-5.5-12.5-12.3-17.5-12.3c-5.7,0-14.8,5-13.9,16.1l3.5,25.3 c0,5.7,4.7,10.4,10.4,10.4c5.2,0,15.9-6.1,17.8-11.6C813.5,385.7,809.1,380.1,809.1,373.5"/><path class="st5" d="M969.3,159.5c-20.1-1.1-1.9,20.9-67.6,20.9c-19.1,0-49-8.5-78.9-16.7c-100.2-27.3-125.3,13.8-129.3,25.2 c-2.4,6.9-3.6,14.1-3.4,20.5c0.4,9.3,0.9,35.7,23.4,48.7c23.6,13.5,41-12.9,97.4-3c40.2,7.1,78.4,13,111,5.6 C980.6,247.3,989.3,160.5,969.3,159.5"/><path class="st13" d="M965.5,1692c-38.4-14.3-89.2-16.3-138.4-16.3h-43.9c-49.2,0-100,2-138.4,16.3c-22.6,8.4-40.2,20.8-52.4,36.9 c-13.5,17.9-20.4,40.1-20.4,66c0,16.8,13.7,30.5,30.5,30.5s30.5-13.7,30.5-30.5c0-24.1,9.3-36.9,33.1-45.7 c29.4-10.9,73.7-12.4,117.2-12.4h43.9c43.5,0,87.8,1.5,117.2,12.4c23.8,8.9,33.1,21.7,33.1,45.7c0,16.8,13.7,30.5,30.5,30.5 c16.8,0,30.5-13.7,30.5-30.5c0-26-6.9-48.2-20.4-66C1005.8,1712.8,988.1,1700.4,965.5,1692"/><path class="st13" d="M806.6,1605.8c-16.8,0-30.5,13.7-30.5,30.5v158.6c0,16.8,13.7,30.5,30.5,30.5s30.5-13.7,30.5-30.5v-158.6 C837.1,1619.5,823.4,1605.8,806.6,1605.8"/><path class="st14" d="M839.8,1383.5h-66.6c-9.4,0-17,7.6-17,17v241.5c0,9.4,7.6,17,17,17h66.6c9.4,0,17-7.6,17-17v-241.5 C856.8,1391.1,849.2,1383.5,839.8,1383.5"/><path class="st13" d="M1037.6,976.2c-15.8-6.8-30.4-7.2-33.5-7.2h0H599.8v69.7h404.3h0.2c0,0,3.3,0.4,5.9,1.5 c2.7,1.2,3.4,2.1,4,5.1c0.5,3.2,2.2,24.7-6.4,138.8c-4.6,61.3-9.9,119.1-10,119.7l69.4,6.4c0.1-0.6,5.5-59.9,10.2-122.4 c9.7-130.2,6.7-147.3,5.4-154.7C1078,1006.9,1062,986.6,1037.6,976.2"/><path class="st13" d="M994.6,1316.7H638.7c-9.4,0-17,7.6-17,17v129c0,9.4,7.6,17,17,17h355.9c9.4,0,17-7.6,17-17v-129 C1011.6,1324.3,1004,1316.7,994.6,1316.7"/><path class="st7" d="M590.5,486.7c-5.2-49.3-49.3-85-98.5-79.8c-49.3,5.2-85,49.3-79.8,98.5l97.2,778.7c5.2,49.3,49.3,85,98.5,79.8 c49.3-5.2,85-49.3,79.8-98.5L590.5,486.7z"/><path class="st14" d="M491.9,406.8c-13.1,1.4-25.2,5.5-35.8,11.7c32.5,8,59.1,33.9,66.4,68.9l150.2,658l-82.2-658.8 C585.3,437.4,541.2,401.7,491.9,406.8"/><path class="st7" d="M1038.9,1231.3H604.1c-49.5,0-89.7,40.2-89.7,89.7c0,49.5,40.2,89.7,89.7,89.7h434.8 c49.5,0,89.7-40.2,89.7-89.7C1128.6,1271.5,1088.4,1231.3,1038.9,1231.3"/><path class="st14" d="M1038.9,1231.3H721.4l301.7,47.7c49.5,2.5,87.6,44.6,85.1,94.1c-0.1,1.8-0.2,3.6-0.4,5.4 c13-15.6,20.8-35.6,20.8-57.5C1128.6,1271.5,1088.4,1231.3,1038.9,1231.3"/><path class="st13" d="M1813.8,630.8c-14.1,0-25.5,11.4-25.5,25.5c0,11.1,7.1,20.5,17,24v255.9h-92.5c-14.1,0-25.5,11.4-25.5,25.5 c0,14.1,11.4,25.5,25.5,25.5h101c23.4,0,42.5-19,42.5-42.5V673.3C1856.2,649.9,1837.2,630.8,1813.8,630.8"/><path class="st7" d="M1800.5,211h-101v665.8h101c9.4,0,17-7.6,17-17V228C1817.5,218.6,1809.9,211,1800.5,211"/><path class="st15" d="M600.5,1769.1c-27.7,0-50.2,22.5-50.2,50.2c0,27.7,22.5,50.2,50.2,50.2c27.7,0,50.2-22.5,50.2-50.2 C650.7,1791.6,628.2,1769.1,600.5,1769.1"/><path class="st15" d="M803.8,1769.1c-27.7,0-50.2,22.5-50.2,50.2c0,27.7,22.5,50.2,50.2,50.2c27.7,0,50.2-22.5,50.2-50.2 C854,1791.6,831.5,1769.1,803.8,1769.1"/><path class="st15" d="M1007.1,1769.1c-27.7,0-50.2,22.5-50.2,50.2c0,27.7,22.5,50.2,50.2,50.2c27.7,0,50.2-22.5,50.2-50.2 C1057.4,1791.6,1034.9,1769.1,1007.1,1769.1"/><path class="st2" d="M1349.5,826.2c-0.6,0.2-64,16.7-146,24.7c-103.1,10.1-189.2,2.5-249.2-21.8c-57.2-23.2-100.5-63.6-126.7-94.6 c-30-35.4-45.6-65.6-45.8-65.9l0.1,0.3c0,0-36.3-50.8-98.5-14.1c-51.7,30.5-29,78-29,78c2.2,4.3,22.2,42.1,61.2,88.9 c23.3,27.9,48.7,53,75.5,74.6c34.3,27.6,71.2,49.4,109.4,65c46.7,19,102,30.7,164.3,34.9c17.4,1.2,35.5,1.8,54,1.8 c32.2,0,66-1.8,101-5.3c92.9-9.3,163.2-27.7,166.1-28.5l-16.2-141.8L1349.5,826.2z"/><path class="st4" d="M1349.5,826.2c-0.6,0.2-64,16.7-146,24.7c-103.1,10.1-189.2,2.5-249.2-21.8c-56.2-22.8-98.9-62.2-125.3-92.9 c3,4.2,6.2,8.5,9.6,12.9c24.9,32,66.5,74.1,122.7,99.7c58.9,26.8,144.7,37.9,248.1,32c82.3-4.6,146.3-18.5,146.9-18.7l17.7-2.6 l-4.2-37.2L1349.5,826.2z"/><path class="st16" d="M1384.5,964.5c0.8-0.2,1.3-0.3,1.5-0.4l-4.2-36.8L1384.5,964.5z"/><g><path class="st14" d="M4425.2,488.4h40.4c9.7,0,17.5,7.8,17.5,17.5c0,9.7-7.8,17.5-17.5,17.5h-40.4c-9.7,0-17.5-7.8-17.5-17.5 C4407.7,496.3,4415.5,488.4,4425.2,488.4"/><path class="st14" d="M3919.6,488.4h40.4c9.7,0,17.5,7.8,17.5,17.5c0,9.7-7.8,17.5-17.5,17.5h-40.4c-9.7,0-17.5-7.8-17.5-17.5 C3902.1,496.3,3909.9,488.4,3919.6,488.4"/><path class="st14" d="M4526.3,488.4h40.4c9.7,0,17.5,7.8,17.5,17.5c0,9.7-7.8,17.5-17.5,17.5h-40.4c-9.7,0-17.5-7.8-17.5-17.5 C4508.8,496.3,4516.6,488.4,4526.3,488.4"/><path class="st14" d="M4728.5,488.4h40.4c9.7,0,17.5,7.8,17.5,17.5c0,9.7-7.8,17.5-17.5,17.5h-40.4c-9.7,0-17.5-7.8-17.5-17.5 C4711,496.3,4718.9,488.4,4728.5,488.4"/><path class="st14" d="M4324.1,488.4h40.4c9.7,0,17.5,7.8,17.5,17.5c0,9.7-7.8,17.5-17.5,17.5h-40.4c-9.7,0-17.5-7.8-17.5-17.5 C4306.6,496.3,4314.4,488.4,4324.1,488.4"/><path class="st14" d="M4223,488.4h40.4c9.7,0,17.5,7.8,17.5,17.5c0,9.7-7.8,17.5-17.5,17.5H4223c-9.7,0-17.5-7.8-17.5-17.5 C4205.5,496.3,4213.3,488.4,4223,488.4"/><path class="st14" d="M4020.7,488.4h40.4c9.7,0,17.5,7.8,17.5,17.5c0,9.7-7.8,17.5-17.5,17.5h-40.4c-9.7,0-17.5-7.8-17.5-17.5 C4003.2,496.3,4011.1,488.4,4020.7,488.4"/><path class="st14" d="M3818.5,488.4h40.4c9.7,0,17.5,7.8,17.5,17.5c0,9.7-7.8,17.5-17.5,17.5h-40.4c-9.7,0-17.5-7.8-17.5-17.5 C3801,496.3,3808.8,488.4,3818.5,488.4"/><path class="st14" d="M4121.8,488.4h40.4c9.7,0,17.5,7.8,17.5,17.5c0,9.7-7.8,17.5-17.5,17.5h-40.4c-9.7,0-17.5-7.8-17.5-17.5 C4104.3,496.3,4112.2,488.4,4121.8,488.4"/><path class="st14" d="M4829.6,488.4h40.4c9.7,0,17.5,7.8,17.5,17.5c0,9.7-7.8,17.5-17.5,17.5h-40.4c-9.7,0-17.5-7.8-17.5-17.5 C4812.1,496.3,4820,488.4,4829.6,488.4"/><path class="st14" d="M5234.1,488.4h40.4c9.7,0,17.5,7.8,17.5,17.5c0,9.7-7.8,17.5-17.5,17.5h-40.4c-9.7,0-17.5-7.8-17.5-17.5 C5216.6,496.3,5224.4,488.4,5234.1,488.4"/><path class="st14" d="M5436.3,488.4h40.4c9.7,0,17.5,7.8,17.5,17.5c0,9.7-7.8,17.5-17.5,17.5h-40.4c-9.7,0-17.5-7.8-17.5-17.5 C5418.8,496.3,5426.7,488.4,5436.3,488.4"/><path class="st14" d="M2379.3,488.4h-40.4c-9.7,0-17.5,7.8-17.5,17.5c0,9.7,7.8,17.5,17.5,17.5h40.4c9.7,0,17.5-7.8,17.5-17.5 C2396.8,496.3,2389,488.4,2379.3,488.4"/><path class="st14" d="M5335.2,488.4h40.4c9.7,0,17.5,7.8,17.5,17.5c0,9.7-7.8,17.5-17.5,17.5h-40.4c-9.7,0-17.5-7.8-17.5-17.5 C5317.7,496.3,5325.5,488.4,5335.2,488.4"/><path class="st14" d="M4930.8,488.4h40.4c9.7,0,17.5,7.8,17.5,17.5c0,9.7-7.8,17.5-17.5,17.5h-40.4c-9.7,0-17.5-7.8-17.5-17.5 C4913.3,496.3,4921.1,488.4,4930.8,488.4"/><path class="st14" d="M5031.9,488.4h40.4c9.7,0,17.5,7.8,17.5,17.5c0,9.7-7.8,17.5-17.5,17.5h-40.4c-9.7,0-17.5-7.8-17.5-17.5 C5014.4,496.3,5022.2,488.4,5031.9,488.4"/><path class="st14" d="M5133,488.4h40.4c9.7,0,17.5,7.8,17.5,17.5c0,9.7-7.8,17.5-17.5,17.5H5133c-9.7,0-17.5-7.8-17.5-17.5 C5115.5,496.3,5123.3,488.4,5133,488.4"/><path class="st14" d="M4627.4,488.4h40.4c9.7,0,17.5,7.8,17.5,17.5c0,9.7-7.8,17.5-17.5,17.5h-40.4c-9.7,0-17.5-7.8-17.5-17.5 C4609.9,496.3,4617.8,488.4,4627.4,488.4"/><path class="st14" d="M2605.1,488.4h40.4c9.7,0,17.5,7.8,17.5,17.5c0,9.7-7.8,17.5-17.5,17.5h-40.4c-9.7,0-17.5-7.8-17.5-17.5 C2587.6,496.3,2595.5,488.4,2605.1,488.4"/><path class="st14" d="M2402.9,488.4h40.4c9.7,0,17.5,7.8,17.5,17.5c0,9.7-7.8,17.5-17.5,17.5h-40.4c-9.7,0-17.5-7.8-17.5-17.5 C2385.4,496.3,2393.2,488.4,2402.9,488.4"/><path class="st14" d="M2807.4,488.4h40.4c9.7,0,17.5,7.8,17.5,17.5c0,9.7-7.8,17.5-17.5,17.5h-40.4c-9.7,0-17.5-7.8-17.5-17.5 C2789.9,496.3,2797.7,488.4,2807.4,488.4"/><path class="st14" d="M2706.2,488.4h40.4c9.7,0,17.5,7.8,17.5,17.5c0,9.7-7.8,17.5-17.5,17.5h-40.4c-9.7,0-17.5-7.8-17.5-17.5 C2688.7,496.3,2696.6,488.4,2706.2,488.4"/><path class="st14" d="M2504,488.4h40.4c9.7,0,17.5,7.8,17.5,17.5c0,9.7-7.8,17.5-17.5,17.5H2504c-9.7,0-17.5-7.8-17.5-17.5 C2486.5,496.3,2494.4,488.4,2504,488.4"/><path class="st14" d="M2301.8,488.4h40.4c9.7,0,17.5,7.8,17.5,17.5c0,9.7-7.8,17.5-17.5,17.5h-40.4c-9.7,0-17.5-7.8-17.5-17.5 C2284.3,496.3,2292.1,488.4,2301.8,488.4"/><path class="st14" d="M2099.6,488.4h40.4c9.7,0,17.5,7.8,17.5,17.5c0,9.7-7.8,17.5-17.5,17.5h-40.4c-9.7,0-17.5-7.8-17.5-17.5 C2082.1,496.3,2089.9,488.4,2099.6,488.4"/><path class="st14" d="M3717.4,488.4h40.4c9.7,0,17.5,7.8,17.5,17.5c0,9.7-7.8,17.5-17.5,17.5h-40.4c-9.7,0-17.5-7.8-17.5-17.5 C3699.9,496.3,3707.7,488.4,3717.4,488.4"/><path class="st14" d="M2200.7,488.4h40.4c9.7,0,17.5,7.8,17.5,17.5c0,9.7-7.8,17.5-17.5,17.5h-40.4c-9.7,0-17.5-7.8-17.5-17.5 C2183.2,496.3,2191,488.4,2200.7,488.4"/><path class="st14" d="M3312.9,488.4h40.4c9.7,0,17.5,7.8,17.5,17.5c0,9.7-7.8,17.5-17.5,17.5h-40.4c-9.7,0-17.5-7.8-17.5-17.5 C3295.4,496.3,3303.3,488.4,3312.9,488.4"/><path class="st14" d="M2908.5,488.4h40.4c9.7,0,17.5,7.8,17.5,17.5c0,9.7-7.8,17.5-17.5,17.5h-40.4c-9.7,0-17.5-7.8-17.5-17.5 C2891,496.3,2898.8,488.4,2908.5,488.4"/><path class="st14" d="M3414,488.4h40.4c9.7,0,17.5,7.8,17.5,17.5c0,9.7-7.8,17.5-17.5,17.5H3414c-9.7,0-17.5-7.8-17.5-17.5 C3396.5,496.3,3404.4,488.4,3414,488.4"/><path class="st14" d="M3616.3,488.4h40.4c9.7,0,17.5,7.8,17.5,17.5c0,9.7-7.8,17.5-17.5,17.5h-40.4c-9.7,0-17.5-7.8-17.5-17.5 C3598.8,496.3,3606.6,488.4,3616.3,488.4"/><path class="st14" d="M3515.2,488.4h40.4c9.7,0,17.5,7.8,17.5,17.5c0,9.7-7.8,17.5-17.5,17.5h-40.4c-9.7,0-17.5-7.8-17.5-17.5 C3497.7,496.3,3505.5,488.4,3515.2,488.4"/><path class="st14" d="M3211.8,488.4h40.4c9.7,0,17.5,7.8,17.5,17.5c0,9.7-7.8,17.5-17.5,17.5h-40.4c-9.7,0-17.5-7.8-17.5-17.5 C3194.3,496.3,3202.1,488.4,3211.8,488.4"/><path class="st14" d="M3009.6,488.4h40.4c9.7,0,17.5,7.8,17.5,17.5c0,9.7-7.8,17.5-17.5,17.5h-40.4c-9.7,0-17.5-7.8-17.5-17.5 C2992.1,496.3,2999.9,488.4,3009.6,488.4"/><path class="st14" d="M3110.7,488.4h40.4c9.7,0,17.5,7.8,17.5,17.5c0,9.7-7.8,17.5-17.5,17.5h-40.4c-9.7,0-17.5-7.8-17.5-17.5 C3093.2,496.3,3101,488.4,3110.7,488.4"/><path class="st14" d="M2018.9,488.4h20c9.7,0,17.5,7.8,17.5,17.5c0,9.7-7.8,17.5-17.5,17.5h-20c-9.7,0-17.5-7.8-17.5-17.5 C2001.4,496.3,2009.2,488.4,2018.9,488.4"/><path class="st14" d="M2141.6,319.6c6.8-6.8,17.9-6.8,24.7,0c6.8,6.8,6.8,17.9,0,24.7l-161.6,161.6l161.6,161.6 c6.8,6.8,6.8,17.9,0,24.7c-3.4,3.4-7.9,5.1-12.4,5.1c-4.5,0-9-1.7-12.4-5.1l-174-174c-3.3-3.3-5.1-7.7-5.1-12.4 c0-4.6,1.8-9.1,5.1-12.4L2141.6,319.6z"/><path class="st14" d="M4621.3,435.8h-76.4l76.4-76.4V435.8z"/><path class="st14" d="M4702.1,487.5h-119.8v-15.6h119.8V487.5z"/><path class="st14" d="M4702.1,519.6h-119.8V504h119.8V519.6z"/><path class="st14" d="M4702.1,551.8h-61.7v-15.6h61.7V551.8z"/></g><path class="st7" d="M2559.5,244.4c-144.4,0-261.5,117.1-261.5,261.5c0,144.4,117.1,261.5,261.5,261.5 c144.4,0,261.5-117.1,261.5-261.5C2821,361.5,2704,244.4,2559.5,244.4"/><path class="st17" d="M2700.6,414.6c-17.4-16.3-44.7-15.7-61,1.8l-104.4,110.3l-53.4-49.6c-17.6-16.1-44.9-15-61.1,2.3 c-16.2,17.8-15.1,44.9,2.3,61.1l84.9,78.3c8,7.5,18.1,11.4,28.3,11.5c11.8,0.2,23.5-4.3,32.2-13.6l133.7-141.2 C2718.7,458.4,2718,431.1,2700.6,414.6"/><path class="st7" d="M4692,244.4c-144.4,0-261.5,117.1-261.5,261.5c0,144.4,117.1,261.5,261.5,261.5 c144.4,0,261.5-117.1,261.5-261.5C4953.5,361.5,4836.4,244.4,4692,244.4"/><path class="st17" d="M4731.5,529.1c0,18.7-15.2,33.8-33.8,33.8c-18.7,0-33.9-15.2-33.9-33.8v-16.9h-101.5v84.6 c0,18.7,15.2,33.9,33.8,33.9h203.1c18.7,0,33.8-15.2,33.8-33.9v-84.6h-101.5V529.1z"/><path class="st17" d="M4663.9,427.6c0-18.7,15.2-33.9,33.9-33.9c18.7,0,33.8,15.2,33.8,33.9H4663.9z M4799.2,427.6h-50.8v-16.9 c0-17.7-13.6-32.1-31-33.5v-0.3h-37v0c-18.5,0.1-33.6,15.2-33.6,33.8v16.9h-50.8c-18.7,0-33.8,15.2-33.8,33.8v33.9h270.8v-33.9 C4833.1,442.7,4817.9,427.6,4799.2,427.6"/><path class="st17" d="M4680.8,546h33.8v-33.8h-33.8V546z"/><path class="st7" d="M3981.2,244.4c-144.4,0-261.5,117.1-261.5,261.5c0,144.4,117.1,261.5,261.5,261.5 c144.4,0,261.5-117.1,261.5-261.5C4242.7,361.5,4125.6,244.4,3981.2,244.4"/><path class="st17" d="M4063.6,438.9H3884v-58h179.6V438.9z M4063.6,496.9h-44.9v-38.7h44.9V496.9z M4063.6,554.9h-44.9v-38.7h44.9 V554.9z M4063.6,612.9h-44.9v-38.7h44.9V612.9z M3996.2,496.9h-44.9v-38.7h44.9V496.9z M3996.2,554.9h-44.9v-38.7h44.9V554.9z M3996.2,612.9h-44.9v-38.7h44.9V612.9z M3928.9,496.9H3884v-38.7h44.9V496.9z M3928.9,554.9H3884v-38.7h44.9V554.9z M3928.9,612.9 H3884v-38.7h44.9V612.9z M4063.6,342.3H3884c-24.8,0-44.9,17.3-44.9,38.7v231.9c0,21.4,20.1,38.7,44.9,38.7h179.6 c24.8,0,44.9-17.3,44.9-38.7V381C4108.4,359.6,4088.3,342.3,4063.6,342.3"/><path class="st7" d="M5402.8,244.4c-144.4,0-261.5,117.1-261.5,261.5c0,144.4,117.1,261.5,261.5,261.5 c144.4,0,261.5-117.1,261.5-261.5C5664.3,361.5,5547.2,244.4,5402.8,244.4"/><path class="st17" d="M5516.7,625.4c-29.6,29.5-70.3,47.8-115.3,47.8c-26.7,0-51.9-6.5-74.2-18c2.8-5.4,4.6-21.2,4.6-21.2 s3.9-39.4,2.5-41.8c-1.5-2.5-11.5-12-17.9-15c-6.5-3-12.5,0.5-17.9-1.6c-5.5-1.9-8-10.5-12-13.4c-4-3-10-3-16.1-4.7 c-6.2-1.7-10.3-9.3-11.8-12.3c-1.5-3-0.6-10.3,3.9-10.9c4.7-0.7,9.5-1.6,26.5-9.9c17-8.3-2.1-13.6-1.1-25.5c1-12,17-11,23.4-18 c6.5-7-4.5-11.5-9.5-15.4c-4.9-4-12.9,1-15.9,6.4c-3,5.4-4,10-10.1,8.9c-6.1-1.2-7.9-2.2-11.3-8.9c-3.5-6.6,2.4-7,15.4-15.9 c13.1-9,5-9,4.5-12.5c-0.5-3.4-6-2-12.5-4.4c-0.1-0.1-0.1-0.2-0.3-0.2c-6-2.6-2.7-9.4,1.3-11.7c4-2.5,8.5-3,12.5-0.5 c3.9,2.5,3.9,4.5,14.4,0.5c10.5-4,10.9-0.5,14.5,4.4c2.3,3.2,5.1,7.9,7.9,12.3c1.6,2.6,3.1,4.8,4.6,6.6c4,5,14,0,22.4-4.9 c0.1,0,0.2-0.2,0.2-0.2c8.2-5,5.3-12.9,5.8-19.8c0.5-7-4.9-7-8-9.5c-3-2.5-3.5-11.4-7-16.5c-3.5-5-10.5-4.5-15-3 c-4.4,1.6-11.9,8.1-13.4,7.5c-1.5-0.5-1.1-8-4.5-10.5c-2.1-1.5-10-1.7-16.8-2.9c29.1-27,68-43.7,110.8-43.7 c45,0,85.8,18.2,115.3,47.8c6.6,6.6,12.6,13.9,18,21.5c-16.3,5.2-45.1,15.3-47.3,18.1c-3,4-13.4,6-18.4,3.5 c-4.9-2.4-8.5-5.4-13.5-5c-5,0.5-7,1-10.5,5c-2.2,2.5-6.3,6.1-10.4,7.8c-2.5,1.1-5,1.8-7,0.6c-0.6-0.3-1.2-0.3-1.8-0.5 c-1.7-0.4-3.3-0.4-4.6,0.1c-2.2,0.7-3.7,2.1-3.7,2.1c-5.1,7.1,1.1,16.2,5.1,15.7c3.9-0.5,8.9-8.5,11.5-8.5c2.5,0,8.1,4.5,9,6.2 c0.9,1.7-4,12.7-7,13.2c-3,0.5-14,3.9-16.5,3.9c-2.5,0-13.4-4.5-15.9-1.5c-2.5,3.1-7.5,2.6-5,9.5c2.5,7,0,12.5-2,13 c-2,0.5-18.5,5-2,5.5c16.5,0.5,20.5-5,23.9-5.5c3.5-0.5,9.5-5,13.4-3c4.1,2,10.2-1.1,13.6,0c3.5,1,10.8-8.3,14.3-4.9 c3.5,3.4,2.5,10.4,1.6,12.9c-1.1,2.4-7,4.5-5.6,7.9c1.5,3.5,4.5,8,9.1,11.5c4.4,3.5,7.4,7.9,10.4,4.5c3-3.5,3-8,4.5-10 c1.5-1.9,15.4,0.5,16,3.5c0.5,3,7.5,9.5,8.9,10c1.6,0.5,7,3.1,7,3.1s1.6,1.8,4,7.1c2.5,5.4,7.5,5.4,11,4.4c3.5-1.1,6.3-8.5,11-8 c4.7,0.5,7-1.6,12,3.5c4.7,4.7,5.9,5.9,9.4,8.5C5551.8,579.4,5537,605.1,5516.7,625.4 M5270.1,606.4c-9-12.3-16.4-25.9-21.7-40.4 c4.1,1,8.6,1.3,12.1,2.2c6,1.5,12,10.9,14.5,12C5277.4,581.1,5272.6,603.1,5270.1,606.4 M5534.8,376.7 c-34.1-34.1-81.3-55.2-133.4-55.2c-52.1,0.1-99.3,21.1-133.4,55.2c-16,16-29,34.9-38.4,55.9c-10.7,23.6-16.8,49.8-16.8,77.4 c0,52.1,21.1,99.2,55.2,133.3c34.1,34.1,81.3,55.3,133.4,55.3c52.1,0,99.3-21.2,133.4-55.3c34.1-34.1,55.2-81.2,55.2-133.3 c0-28.1-6.3-54.8-17.3-78.8C5563.2,411,5550.4,392.4,5534.8,376.7"/><path class="st17" d="M5465,559.7c-3.5-0.9-6.5-8.4-7.5-13.9c-1-5.4-5-12-10.4-14.4c-5.5-2.5-9,0-14-2.5c-5-2.5-12.9-8-17.9-9.5 c-5-1.5-11.9-0.5-17-3c-4.9-2.5-12.5,4-12.5,4s-6,10.9-8,14c-2,2.9-2.5,15.4-1.5,19.4c1,4,10.9,13.5,10.9,13.5s4.5,7.5,8,7.5 c3.4,0,10-5,15.5-5.4c5.4-0.5,8.4,4,9.9,6.4c1.5,2.5,2.5,14,2,17.5c-0.5,3.5,0.5,25.9,2,27.9c1.5,2.1,12.5,12.5,16.4,12.5 c4,0,8.5-7,12-10c3.5-3,8-15.5,8-19v-18c0-3,4.5-7.5,8-11c3.5-3.5,7-9.9,6-13.9C5474,557.7,5468.5,560.8,5465,559.7"/><path class="st7" d="M3269.5,243c-144.4,0-261.5,117.1-261.5,261.5c0,144.4,117.1,261.5,261.5,261.5 c144.4,0,261.5-117.1,261.5-261.5C3531,360.1,3413.9,243,3269.5,243"/><path class="st17" d="M3294.6,434.4h76.4l-76.4-76.4V434.4z"/><path class="st17" d="M3353.6,605.2h-157.2V380h80v-22h-101.5v271.1H3371V451.8h-17.4V605.2z"/><path class="st17" d="M3213.8,486.1h119.8v-15.6h-119.8V486.1z"/><path class="st17" d="M3213.8,518.2h119.8v-15.6h-119.8V518.2z"/><path class="st17" d="M3213.8,550.3h61.7v-15.6h-61.7V550.3z"/></g></svg>