<svg width="32" height="21" viewBox="0 0 32 21" version="1.1" xmlns="http://www.w3.org/2000/svg" xmlns:xlink="http://www.w3.org/1999/xlink"><title>Shape</title><desc>Created with Sketch.</desc><g id="Page-1" stroke="none" stroke-width="1" fill="none" fill-rule="evenodd"><g id="mail" fill="#4688F1" fill-rule="nonzero"><path d="M28,0 L4,0 C1.791,0 0,1.792 0,4 L0,17 C0,19.209 1.791,21 4,21 L28,21 C30.209,21 32,19.209 32,17 L32,4 C32,1.792 30.209,0 28,0 Z M2,5.25 L8.999,10.5 L2,15.75 L2,5.25 Z M30,17 C30,18.104 29.102,19 28,19 L4,19 C2.897,19 2,18.104 2,17 L9.832,11.125 L14.2,14.402 C14.733,14.8 15.366,15.002 16,15.002 C16.633,15.002 17.266,14.801 17.799,14.402 L22.168,11.125 L30,17 Z M30,15.75 L23,10.5 L30,5.25 L30,15.75 Z M17.199,13.602 C16.85,13.864 16.436,14.002 16,14.002 C15.564,14.002 15.149,13.863 14.8,13.602 L2,4 C2,2.897 2.897,2 4,2 L28,2 C29.102,2 30,2.897 30,4 L17.199,13.602 Z" id="Shape"/></g></g></svg>