<svg xmlns="http://www.w3.org/2000/svg" xmlns:xlink="http://www.w3.org/1999/xlink" width="228" height="228" version="1.1" viewBox="0 0 228 228"><title>ruby-bs</title><desc>Created with Sketch.</desc><defs><filter id="filter-1" width="106.7%" height="107.2%" x="-3.4%" y="-3.4%" filterUnits="objectBoundingBox"><feOffset dx=".5" dy=".5" in="SourceAlpha" result="shadowOffsetOuter1"/><feGaussianBlur in="shadowOffsetOuter1" result="shadowBlurOuter1" stdDeviation=".5"/><feColorMatrix in="shadowBlurOuter1" result="shadowMatrixOuter1" type="matrix" values="0 0 0 0 0 0 0 0 0 0 0 0 0 0 0 0 0 0 0.5 0"/><feMerge><feMergeNode in="shadowMatrixOuter1"/><feMergeNode in="SourceGraphic"/></feMerge></filter></defs><g id="Page-1" fill="none" fill-rule="evenodd" stroke="none" stroke-width="1"><g id="ruby-bs" filter="url(#filter-1)" transform="translate(6.000000, 6.000000)"><path id="bg" fill="#FFF" fill-rule="nonzero" stroke="#FFF" stroke-linejoin="round" stroke-width="12" d="M179.828839,0.836476832 C198.125822,3.83217527 208.861189,13.391777 212.358357,28.2009836 L212.312399,28.1945385 C213.572873,33.0258333 214.018876,38.1724129 213.869377,43.3808832 L214,43.1163143 L201.911136,201.270843 L202.073296,202.389276 L202.259013,202.403845 L201.822289,202.433212 L201.816202,202.51285 L43.6255425,213.239584 L43.7611066,213.159144 C30.594827,212.781144 1.32848599,211.564894 0.0243807025,170.600812 L0.0140014244,170.619729 L0.020645588,170.480866 C0.0183345997,170.404959 0.0161200017,170.328937 0.0140014244,170.252781 L0.0332415997,170.217611 L2.87615864,110.800992 L2.10925625,108.62721 C10.6306792,92.6110371 28.4079443,59.035354 29.4231708,58.5173108 C30.4491978,58.0100599 58.9079424,31.0394293 73.5736461,17.4084143 L120.122864,0 L120.921442,0.563461994 L179.838706,0.831027837 L179.828839,0.836476832 Z"/><path id="bg" fill="#C22628" fill-rule="nonzero" stroke="#FFF" stroke-linejoin="round" stroke-width="4" d="M177.104113,8.78846451 C194.718249,11.612215 205.05297,20.6231121 208.419623,34.5822958 L208.375381,34.5762207 C209.588813,39.1302075 210.018172,43.9813823 209.874252,48.8908954 L210,48.6415123 L198.362295,197.718244 L198.518403,198.772481 L198.697189,198.786214 L198.276764,198.813895 L198.270904,198.888962 L45.98395,209 L46.1144548,208.924177 C33.4395433,208.567874 5.26542775,207.421434 4.00999192,168.80862 L4,168.826451 L4.0063962,168.695559 C4.00417146,168.624009 4.00203951,168.55235 4,168.480565 L4.01852213,168.447414 L6.75534096,112.441206 L6.01705951,110.392196 C14.2204613,95.2953234 31.3342755,63.6468266 32.3116135,63.1585182 C33.299349,62.6803826 60.6960078,37.2578196 74.8143846,24.4092014 L119.626377,8 L120.395152,8.53112025 L177.113612,8.78332827 L177.104113,8.78846451 Z"/><path id="Shape" fill="#AC1719" fill-rule="nonzero" d="M175.126769,8.08287881 C200.275394,12.4408255 207.406162,29.6484892 206.875625,47.6779372 L207,47.420546 L195.681875,195.906101 L48.6789814,206 C36.4653564,205.485412 9.24375,204.364797 8,166.263892 L21.6398564,141.36134 L49.1848379,205.75934 L72.4429629,129.85636 L72.1942129,129.914531 L72.3269443,129.665506 L149.066319,154.202885 L137.491088,109.1209 L129.282338,76.7475816 L202.414838,72.0244624 L197.315463,67.7910284 L144.812694,24.9421014 L175.151838,8 L175.126963,8.08307336 L175.126769,8.08287881 Z M50.5059405,49.1254477 C79.914798,19.9011744 117.871301,2.62961549 132.447787,17.3616612 C146.999496,32.0607489 131.580634,67.8611187 102.113902,97.068913 C72.6885917,126.285044 35.194505,144.49959 20.6511189,129.800502 C6.06650426,115.101415 21.0227556,78.3745365 50.4811647,49.1502632 L50.5059405,49.1254477 Z"/><polygon id="Path-2" points="49.356 206.435 72.085 130.782 102.297 182.493"/><polygon id="Path-3" fill="#990D0F" points="71.869 130.496 102.096 182.587 148.032 154.243"/><polygon id="Path-4" points="129.424 77.295 148.05 153.644 184.793 103.38"/><polygon id="Path-5" fill="#990D0F" points="128.366 77.572 201.287 71.998 184.613 103.858"/><polygon id="Path-6" fill="#990D0F" points="49.045 206.8 195.64 196.661 102.192 183.198"/><polygon id="Path-7" points="102.281 182.802 148.113 153.879 196.184 196.956"/><polygon id="Path-8" fill="#990D0F" points="147.88 154.09 184.45 104.09 196.106 196.395"/><polygon id="Path-9" points="184.369 104.25 201.943 72.443 196.255 195.761"/></g></g></svg>