<svg xmlns="http://www.w3.org/2000/svg" viewBox="0 0 300 299.32"><defs><style>.cls-1{fill:#fae6a7}.cls-2{fill:#ebd798}.cls-3{fill:#fff4cb}.cls-4{fill:#e1cd93}.cls-5{fill:#895438}.cls-6{fill:#ffe159}.cls-7{fill:#ffc83c}.cls-8{fill:#6c392c}.cls-9{fill:#c7cfe2}.cls-10{fill:#afb9d2}.cls-11{fill:#e4eaf8}.cls-12{fill:#7f8499}.cls-13{fill:#707487}.cls-14{fill:#d5dced}</style></defs><title>Risorsa 2</title><g id="Livello_2" data-name="Livello 2"><g id="Livello_1-2" data-name="Livello 1"><polygon class="cls-1" points="90.65 62.06 88.07 82.67 85.49 62.06 77.76 62.06 72.61 103.28 67.46 62.06 46.84 62.06 46.84 237.25 198.87 237.25 201.45 216.64 204.03 237.25 211.76 237.25 216.91 196.03 222.06 237.25 252.99 237.25 252.99 62.06 90.65 62.06"/><rect class="cls-1" x="252.99" y="56.81" width="41.46" height="185.7"/><rect class="cls-1" x="5.38" y="56.81" width="41.46" height="185.7"/><rect class="cls-2" x="5.96" y="62.06" width="15.18" height="175.19"/><rect class="cls-2" x="252.99" y="62.06" width="15.18" height="175.19"/><rect class="cls-3" x="283.94" y="62.06" width="10.51" height="175.19"/><rect class="cls-3" x="36.33" y="62.06" width="10.51" height="175.19"/><rect class="cls-2" x="46.84" y="62.06" width="10.51" height="175.19"/><rect class="cls-4" x="242.47" y="62.06" width="10.51" height="175.19"/><path class="cls-5" d="M47.3,62.06h-42A5.25,5.25,0,0,1,0,56.81H0a5.25,5.25,0,0,1,5.26-5.26h42a5.26,5.26,0,0,1,5.26,5.26h0A5.26,5.26,0,0,1,47.3,62.06Z"/><path class="cls-5" d="M31.43,51.55H21.12L17,10.26A9.34,9.34,0,0,1,26.28,0h0a9.33,9.33,0,0,1,9.28,10.26Z"/><path class="cls-6" d="M31.53,52.13H21a5.25,5.25,0,0,1-5.25-5.25h0A5.26,5.26,0,0,1,21,41.62H31.53a5.26,5.26,0,0,1,5.26,5.26h0A5.25,5.25,0,0,1,31.53,52.13Z"/><path class="cls-7" d="M21.12,51.82h0A5.16,5.16,0,0,1,16,46.66h0a5.16,5.16,0,0,1,5.15-5.16h0a5.16,5.16,0,0,1,5.16,5.16h0A5.16,5.16,0,0,1,21.12,51.82Z"/><path class="cls-5" d="M5.26,237.25h42a5.27,5.27,0,0,1,5.26,5.26h0a5.27,5.27,0,0,1-5.26,5.26h-42A5.26,5.26,0,0,1,0,242.51H0A5.26,5.26,0,0,1,5.26,237.25Z"/><path class="cls-5" d="M21.12,247.77H31.43l4.13,41.29a9.33,9.33,0,0,1-9.28,10.26h0A9.34,9.34,0,0,1,17,289.06Z"/><path class="cls-6" d="M21,247.77H31.53A5.25,5.25,0,0,1,36.79,253h0a5.26,5.26,0,0,1-5.26,5.26H21A5.26,5.26,0,0,1,15.77,253h0A5.25,5.25,0,0,1,21,247.77Z"/><path class="cls-5" d="M294.74,62.06h-42a5.26,5.26,0,0,1-5.26-5.25h0a5.26,5.26,0,0,1,5.26-5.26h42A5.25,5.25,0,0,1,300,56.81h0A5.25,5.25,0,0,1,294.74,62.06Z"/><path class="cls-5" d="M278.88,51.55H268.57l-4.13-41.29A9.33,9.33,0,0,1,273.72,0h0A9.34,9.34,0,0,1,283,10.26Z"/><path class="cls-6" d="M279,52.13H268.47a5.25,5.25,0,0,1-5.26-5.25h0a5.26,5.26,0,0,1,5.26-5.26H279a5.26,5.26,0,0,1,5.25,5.26h0A5.25,5.25,0,0,1,279,52.13Z"/><path class="cls-5" d="M252.7,237.25h42a5.26,5.26,0,0,1,5.26,5.26h0a5.26,5.26,0,0,1-5.26,5.26h-42a5.27,5.27,0,0,1-5.26-5.26h0A5.27,5.27,0,0,1,252.7,237.25Z"/><path class="cls-5" d="M268.57,247.77h10.31L283,289.06a9.34,9.34,0,0,1-9.29,10.26h0a9.33,9.33,0,0,1-9.28-10.26Z"/><path class="cls-6" d="M268.47,247.77H279a5.25,5.25,0,0,1,5.25,5.25h0a5.26,5.26,0,0,1-5.25,5.26H268.47a5.26,5.26,0,0,1-5.26-5.26h0A5.25,5.25,0,0,1,268.47,247.77Z"/><path class="cls-8" d="M21.27,62.06H5.51A5.25,5.25,0,0,1,.25,56.81h0a5.25,5.25,0,0,1,5.26-5.26H21.27a5.25,5.25,0,0,1,5.26,5.26h0A5.25,5.25,0,0,1,21.27,62.06Z"/><path class="cls-8" d="M21.27,247.77H5.51a5.26,5.26,0,0,1-5.26-5.26h0a5.26,5.26,0,0,1,5.26-5.26H21.27a5.26,5.26,0,0,1,5.26,5.26h0A5.26,5.26,0,0,1,21.27,247.77Z"/><path class="cls-8" d="M268.72,62.06H253a5.26,5.26,0,0,1-5.26-5.25h0A5.26,5.26,0,0,1,253,51.55h15.77A5.25,5.25,0,0,1,274,56.81h0A5.25,5.25,0,0,1,268.72,62.06Z"/><path class="cls-8" d="M268.72,247.77H253a5.27,5.27,0,0,1-5.26-5.26h0a5.27,5.27,0,0,1,5.26-5.26h15.77a5.26,5.26,0,0,1,5.25,5.26h0A5.26,5.26,0,0,1,268.72,247.77Z"/><path class="cls-7" d="M21.12,258h0A5.16,5.16,0,0,1,16,252.86h0a5.16,5.16,0,0,1,5.15-5.15h0a5.16,5.16,0,0,1,5.16,5.15h0A5.16,5.16,0,0,1,21.12,258Z"/><path class="cls-7" d="M268.57,51.82h0a5.16,5.16,0,0,1-5.16-5.16h0a5.16,5.16,0,0,1,5.16-5.16h0a5.16,5.16,0,0,1,5.15,5.16h0A5.16,5.16,0,0,1,268.57,51.82Z"/><path class="cls-7" d="M268.57,258h0a5.16,5.16,0,0,1-5.16-5.16h0a5.16,5.16,0,0,1,5.16-5.15h0a5.16,5.16,0,0,1,5.15,5.15h0A5.16,5.16,0,0,1,268.57,258Z"/><path class="cls-9" d="M263.26,205.18v9.47a1.89,1.89,0,0,1-1.89,1.9h-53a1.9,1.9,0,0,1-1.89-1.9v-9.47H202.8v9.55a5.68,5.68,0,0,0,5.67,5.68H233l0,11.36h3.88l0-11.37h24.53a5.68,5.68,0,0,0,5.68-5.68v-9.55Z"/><rect class="cls-10" x="202.58" y="205.18" width="3.86" height="5.58"/><rect class="cls-10" x="263.26" y="205.18" width="3.86" height="5.58"/><rect class="cls-10" x="233.03" y="226.2" width="3.86" height="5.58"/><path class="cls-11" d="M284.17,275.3H185.75a5.68,5.68,0,0,1-5.68-5.68v-34.1a5.68,5.68,0,0,1,5.68-5.68h98.42a5.68,5.68,0,0,1,5.68,5.68v34.1A5.68,5.68,0,0,1,284.17,275.3Z"/><path class="cls-9" d="M257.5,269.94H212.3a2.41,2.41,0,0,1-2.44-2.32,2.36,2.36,0,0,1,2.36-2.4h45.2a2.41,2.41,0,0,1,2.44,2.32A2.36,2.36,0,0,1,257.5,269.94Z"/><path class="cls-9" d="M204.57,269.94h-3.69a2.41,2.41,0,0,1-2.44-2.32,2.36,2.36,0,0,1,2.36-2.4h3.68a2.42,2.42,0,0,1,2.45,2.32A2.36,2.36,0,0,1,204.57,269.94Z"/><path class="cls-9" d="M193.21,269.94h-3.69a2.41,2.41,0,0,1-2.44-2.32,2.36,2.36,0,0,1,2.36-2.4h3.69a2.41,2.41,0,0,1,2.44,2.32A2.36,2.36,0,0,1,193.21,269.94Z"/><path class="cls-9" d="M280.28,269.94h-3.69a2.41,2.41,0,0,1-2.44-2.32,2.36,2.36,0,0,1,2.36-2.4h3.69a2.41,2.41,0,0,1,2.44,2.32A2.36,2.36,0,0,1,280.28,269.94Z"/><path class="cls-9" d="M268.93,269.94h-3.69a2.43,2.43,0,0,1-2.45-2.32,2.37,2.37,0,0,1,2.36-2.4h3.69a2.41,2.41,0,0,1,2.44,2.32A2.35,2.35,0,0,1,268.93,269.94Z"/><path class="cls-9" d="M280.28,262.43h-7.46a2.42,2.42,0,0,1-2.45-2.32,2.36,2.36,0,0,1,2.36-2.39h7.46a2.41,2.41,0,0,1,2.45,2.32A2.36,2.36,0,0,1,280.28,262.43Z"/><path class="cls-9" d="M265.14,262.43h-3.69a2.41,2.41,0,0,1-2.44-2.32,2.35,2.35,0,0,1,2.36-2.39h3.69A2.41,2.41,0,0,1,267.5,260,2.35,2.35,0,0,1,265.14,262.43Z"/><path class="cls-9" d="M253.78,262.43h-3.69a2.41,2.41,0,0,1-2.44-2.32,2.35,2.35,0,0,1,2.36-2.39h3.69a2.41,2.41,0,0,1,2.44,2.32A2.35,2.35,0,0,1,253.78,262.43Z"/><path class="cls-9" d="M242.43,262.43h-3.69a2.42,2.42,0,0,1-2.45-2.32,2.36,2.36,0,0,1,2.36-2.39h3.69a2.42,2.42,0,0,1,2.45,2.32A2.36,2.36,0,0,1,242.43,262.43Z"/><path class="cls-9" d="M231.07,262.43h-3.69a2.41,2.41,0,0,1-2.44-2.32,2.35,2.35,0,0,1,2.36-2.39H231a2.41,2.41,0,0,1,2.44,2.32A2.35,2.35,0,0,1,231.07,262.43Z"/><path class="cls-9" d="M219.71,262.43H216a2.41,2.41,0,0,1-2.44-2.32,2.35,2.35,0,0,1,2.36-2.39h3.69a2.41,2.41,0,0,1,2.44,2.32A2.35,2.35,0,0,1,219.71,262.43Z"/><path class="cls-9" d="M208.36,262.43h-3.69a2.42,2.42,0,0,1-2.45-2.32,2.36,2.36,0,0,1,2.36-2.39h3.69a2.41,2.41,0,0,1,2.44,2.32A2.35,2.35,0,0,1,208.36,262.43Z"/><path class="cls-9" d="M197,262.43h-7.46a2.41,2.41,0,0,1-2.44-2.32,2.35,2.35,0,0,1,2.35-2.39h7.47a2.41,2.41,0,0,1,2.44,2.32A2.35,2.35,0,0,1,197,262.43Z"/><path class="cls-9" d="M280.28,247.42h-7.46a2.42,2.42,0,0,1-2.45-2.32,2.36,2.36,0,0,1,2.36-2.39h7.46a2.42,2.42,0,0,1,2.45,2.32A2.36,2.36,0,0,1,280.28,247.42Z"/><path class="cls-9" d="M265.14,247.42h-3.69A2.41,2.41,0,0,1,259,245.1a2.35,2.35,0,0,1,2.36-2.39h3.69A2.41,2.41,0,0,1,267.5,245,2.35,2.35,0,0,1,265.14,247.42Z"/><path class="cls-9" d="M253.78,247.42h-3.69a2.41,2.41,0,0,1-2.44-2.32,2.35,2.35,0,0,1,2.36-2.39h3.69a2.41,2.41,0,0,1,2.44,2.32A2.35,2.35,0,0,1,253.78,247.42Z"/><path class="cls-9" d="M242.43,247.42h-3.69a2.42,2.42,0,0,1-2.45-2.32,2.36,2.36,0,0,1,2.36-2.39h3.69a2.43,2.43,0,0,1,2.45,2.32A2.36,2.36,0,0,1,242.43,247.42Z"/><path class="cls-9" d="M231.07,247.42h-3.69a2.41,2.41,0,0,1-2.44-2.32,2.35,2.35,0,0,1,2.36-2.39H231a2.41,2.41,0,0,1,2.44,2.32A2.35,2.35,0,0,1,231.07,247.42Z"/><path class="cls-9" d="M219.71,247.42H216a2.41,2.41,0,0,1-2.44-2.32,2.35,2.35,0,0,1,2.36-2.39h3.69a2.41,2.41,0,0,1,2.44,2.32A2.35,2.35,0,0,1,219.71,247.42Z"/><path class="cls-9" d="M208.36,247.42h-3.69a2.42,2.42,0,0,1-2.45-2.32,2.36,2.36,0,0,1,2.36-2.39h3.69a2.41,2.41,0,0,1,2.44,2.32A2.35,2.35,0,0,1,208.36,247.42Z"/><path class="cls-9" d="M197,247.42h-7.46a2.41,2.41,0,0,1-2.44-2.32,2.35,2.35,0,0,1,2.35-2.39h7.47a2.41,2.41,0,0,1,2.44,2.32A2.35,2.35,0,0,1,197,247.42Z"/><path class="cls-9" d="M280.28,254.93h-3.69a2.41,2.41,0,0,1-2.44-2.32,2.36,2.36,0,0,1,2.36-2.4h3.69a2.41,2.41,0,0,1,2.44,2.32A2.36,2.36,0,0,1,280.28,254.93Z"/><path class="cls-9" d="M268.93,254.93h-3.69a2.42,2.42,0,0,1-2.45-2.32,2.37,2.37,0,0,1,2.36-2.4h3.69a2.42,2.42,0,0,1,2.45,2.32A2.37,2.37,0,0,1,268.93,254.93Z"/><path class="cls-9" d="M257.57,254.93h-3.69a2.41,2.41,0,0,1-2.44-2.32,2.36,2.36,0,0,1,2.36-2.4h3.68a2.42,2.42,0,0,1,2.45,2.32A2.37,2.37,0,0,1,257.57,254.93Z"/><path class="cls-9" d="M246.21,254.93h-3.69a2.41,2.41,0,0,1-2.44-2.32,2.36,2.36,0,0,1,2.36-2.4h3.69a2.41,2.41,0,0,1,2.44,2.32A2.36,2.36,0,0,1,246.21,254.93Z"/><path class="cls-9" d="M234.86,254.93h-3.69a2.42,2.42,0,0,1-2.45-2.32,2.37,2.37,0,0,1,2.36-2.4h3.69a2.41,2.41,0,0,1,2.44,2.32A2.36,2.36,0,0,1,234.86,254.93Z"/><path class="cls-9" d="M223.5,254.93h-3.69a2.41,2.41,0,0,1-2.44-2.32,2.36,2.36,0,0,1,2.35-2.4h3.69a2.42,2.42,0,0,1,2.45,2.32A2.37,2.37,0,0,1,223.5,254.93Z"/><path class="cls-9" d="M212.14,254.93h-3.69a2.41,2.41,0,0,1-2.44-2.32,2.36,2.36,0,0,1,2.36-2.4h3.69a2.41,2.41,0,0,1,2.44,2.32A2.36,2.36,0,0,1,212.14,254.93Z"/><path class="cls-9" d="M200.77,254.93H189.54a2.42,2.42,0,0,1-2.45-2.32,2.37,2.37,0,0,1,2.36-2.4h11.24a2.41,2.41,0,0,1,2.44,2.32A2.36,2.36,0,0,1,200.77,254.93Z"/><path class="cls-9" d="M280.28,239.7h-3.69a2.41,2.41,0,0,1-2.44-2.32,2.35,2.35,0,0,1,2.36-2.39h3.69a2.41,2.41,0,0,1,2.44,2.32A2.35,2.35,0,0,1,280.28,239.7Z"/><path class="cls-9" d="M268.93,239.7h-3.69a2.42,2.42,0,0,1-2.45-2.32,2.36,2.36,0,0,1,2.36-2.39h3.69a2.43,2.43,0,0,1,2.45,2.32A2.36,2.36,0,0,1,268.93,239.7Z"/><path class="cls-9" d="M257.57,239.7h-3.69a2.41,2.41,0,0,1-2.44-2.32A2.35,2.35,0,0,1,253.8,235h3.68a2.42,2.42,0,0,1,2.45,2.32A2.35,2.35,0,0,1,257.57,239.7Z"/><path class="cls-9" d="M246.21,239.7h-3.69a2.41,2.41,0,0,1-2.44-2.32,2.35,2.35,0,0,1,2.36-2.39h3.69a2.41,2.41,0,0,1,2.44,2.32A2.35,2.35,0,0,1,246.21,239.7Z"/><path class="cls-9" d="M234.86,239.7h-3.69a2.41,2.41,0,0,1-2.45-2.32,2.36,2.36,0,0,1,2.36-2.39h3.69a2.41,2.41,0,0,1,2.44,2.32A2.35,2.35,0,0,1,234.86,239.7Z"/><path class="cls-9" d="M223.5,239.7h-3.69a2.41,2.41,0,0,1-2.44-2.32,2.35,2.35,0,0,1,2.35-2.39h3.69a2.42,2.42,0,0,1,2.45,2.32A2.36,2.36,0,0,1,223.5,239.7Z"/><path class="cls-9" d="M212.14,239.7h-3.69a2.41,2.41,0,0,1-2.44-2.32,2.35,2.35,0,0,1,2.36-2.39h3.69a2.41,2.41,0,0,1,2.44,2.32A2.35,2.35,0,0,1,212.14,239.7Z"/><path class="cls-9" d="M200.77,239.7H189.54a2.41,2.41,0,0,1-2.45-2.32,2.36,2.36,0,0,1,2.36-2.39h11.24a2.41,2.41,0,0,1,2.44,2.32A2.35,2.35,0,0,1,200.77,239.7Z"/><path class="cls-11" d="M288,207.11H242.43a1.9,1.9,0,0,1-1.9-1.89V174.91a1.9,1.9,0,0,1,1.9-1.89H288a1.89,1.89,0,0,1,1.89,1.89v30.31A1.89,1.89,0,0,1,288,207.11Z"/><path class="cls-12" d="M282.16,178.59H268.38a3.83,3.83,0,0,0-3.45,2.14l-7.39,14.78L254,188.45a3.84,3.84,0,0,0-3.45-2.14h-2.41a1.87,1.87,0,0,0-1.89,1.71,1.82,1.82,0,0,0,1.82,1.94h2.72l5.11,10.22a1.88,1.88,0,0,0,3.36,0l8.86-17.73h14a1.93,1.93,0,1,0,0-3.86Z"/><path class="cls-13" d="M281.5,186.73a1.89,1.89,0,0,0-2.66.24l-3.28,3.94L272.28,187a1.9,1.9,0,1,0-2.91,2.43l3.72,4.46-3.72,4.47a1.9,1.9,0,0,0,.24,2.67,1.94,1.94,0,0,0,1.21.44,1.89,1.89,0,0,0,1.46-.69l3.28-3.93,3.28,3.93a1.89,1.89,0,1,0,2.9-2.42L278,193.86l3.72-4.46A1.9,1.9,0,0,0,281.5,186.73Z"/><path class="cls-11" d="M208.3,173a3.8,3.8,0,0,0-3.06,1.55.91.91,0,0,1-1.46,0,3.78,3.78,0,0,0-3.06-1.55h-19a1.9,1.9,0,0,0-1.9,1.89v30.31a1.9,1.9,0,0,0,1.9,1.89h19a3.8,3.8,0,0,1,3.06,1.55.92.92,0,0,0,1.46,0,3.8,3.8,0,0,1,3.07-1.55h19a1.89,1.89,0,0,0,1.89-1.89V174.91a1.89,1.89,0,0,0-1.89-1.89Z"/><path class="cls-12" d="M197.1,184.38h-9.63a1.93,1.93,0,1,1,0-3.86h9.62a1.93,1.93,0,1,1,0,3.86Z"/><path class="cls-12" d="M197.1,199.61h-9.63a1.93,1.93,0,1,1,0-3.86h9.62a1.93,1.93,0,1,1,0,3.86Z"/><path class="cls-13" d="M197.1,192.1h-9.63a1.93,1.93,0,1,1,0-3.86h9.62a1.93,1.93,0,1,1,0,3.86Z"/><path class="cls-13" d="M221.7,184.38h-9.62a1.93,1.93,0,1,1,0-3.86h9.63a1.93,1.93,0,1,1,0,3.86Z"/><path class="cls-13" d="M221.7,199.61h-9.62a1.93,1.93,0,1,1,0-3.86h9.63a1.93,1.93,0,1,1,0,3.86Z"/><path class="cls-12" d="M221.7,192.1h-9.62a1.93,1.93,0,1,1,0-3.86h9.63a1.93,1.93,0,1,1,0,3.86Z"/><path class="cls-14" d="M206.44,173.57a3.74,3.74,0,0,0-1.18,1,1,1,0,0,1-1.49,0,3.89,3.89,0,0,0-1.19-1v34.07a3.89,3.89,0,0,1,1.19,1,1,1,0,0,0,1.49,0,3.74,3.74,0,0,1,1.18-1Z"/></g></g></svg>