<svg version="1.1" id="Layer_1" xmlns="http://www.w3.org/2000/svg" xmlns:xlink="http://www.w3.org/1999/xlink" x="0" y="0" viewBox="0 0 512 512" xml:space="preserve" enable-background="new 0 0 512 512"><path d="M485.517,136.828c14.626,0,26.483,11.857,26.483,26.483v300.138	c0,14.626-11.857,26.483-26.483,26.483H26.483C11.857,489.931,0,478.075,0,463.449V163.311c0-14.626,11.857-26.483,26.483-26.483	H485.517z" fill="#E4EAF8"/><rect x="141.241" y="136.828" width="229.517" height="17.655" fill="#D5DCED"/><path d="M432.552,472.276H79.448c-4.875,0-8.828-3.953-8.828-8.828V163.311c0-4.875,3.953-8.828,8.828-8.828	h353.103c4.875,0,8.828,3.953,8.828,8.828v300.138C441.379,468.324,437.427,472.276,432.552,472.276z" fill="#FFFFFF"/><path d="M167.724,30.897H256c4.875,0,8.828,3.953,8.828,8.828v432.552H158.897V39.724	C158.897,34.849,162.849,30.897,167.724,30.897z" fill="#FFDC64"/><path d="M476.69,339.862c-9.75,0-17.655-7.905-17.655-17.655v-17.655c0-9.75,7.905-17.655,17.655-17.655	c9.75,0,17.655,7.905,17.655,17.655v17.655C494.345,331.957,486.44,339.862,476.69,339.862z" fill="#D5DCED"/><path d="M35.31,339.862c-4.879,0-8.828-3.953-8.828-8.828v-35.31c0-4.875,3.948-8.828,8.828-8.828	s8.828,3.953,8.828,8.828v35.31C44.138,335.91,40.19,339.862,35.31,339.862z" fill="#AFB9D2"/><path d="M35.396,269.242c-4.879,0-8.871-3.953-8.871-8.828s3.905-8.828,8.785-8.828h0.086	c4.879,0,8.828,3.953,8.828,8.828S40.276,269.242,35.396,269.242z" fill="#7F8499"/><g><path d="M185.379,242.759c0-4.875-3.948-8.828-8.828-8.828h-17.655v17.655h17.655 C181.431,251.586,185.379,247.634,185.379,242.759z" fill="#FFC850"/><path d="M185.379,136.828c0-4.875-3.948-8.828-8.828-8.828h-17.655v17.655h17.655 C181.431,145.655,185.379,141.703,185.379,136.828z" fill="#FFC850"/><path d="M185.379,101.518c0-4.875-3.948-8.828-8.828-8.828h-17.655v17.655h17.655 C181.431,110.345,185.379,106.393,185.379,101.518z" fill="#FFC850"/><path d="M185.379,313.38c0-4.875-3.948-8.828-8.828-8.828h-17.655v17.655h17.655 C181.431,322.207,185.379,318.255,185.379,313.38z" fill="#FFC850"/></g><path d="M158.897,75.035h26.483c4.879,0,8.828-3.953,8.828-8.828c0-4.875-3.948-8.828-8.828-8.828h-26.483	V75.035z" fill="#E1A546"/><g><path d="M185.379,207.449c0-4.875-3.948-8.828-8.828-8.828h-17.655v17.655h17.655 C181.431,216.276,185.379,212.324,185.379,207.449z" fill="#FFC850"/><path d="M185.379,348.69c0-4.875-3.948-8.828-8.828-8.828h-17.655v17.655h17.655 C181.431,357.518,185.379,353.565,185.379,348.69z" fill="#FFC850"/></g><g><path d="M185.379,269.242h-26.483v17.655h26.483c4.879,0,8.828-3.953,8.828-8.828 S190.259,269.242,185.379,269.242z" fill="#E1A546"/><path d="M185.379,163.311h-26.483v17.655h26.483c4.879,0,8.828-3.953,8.828-8.828 C194.207,167.263,190.259,163.311,185.379,163.311z" fill="#E1A546"/><path d="M194.207,384c0-4.875-3.948-8.828-8.828-8.828h-26.483v17.655h26.483 C190.259,392.828,194.207,388.875,194.207,384z" fill="#E1A546"/></g><path d="M185.379,419.311c0-4.875-3.948-8.828-8.828-8.828h-17.655v17.655h17.655	C181.431,428.138,185.379,424.186,185.379,419.311z" fill="#FFC850"/><path d="M329.665,24.394c-0.845-3.101-5.242-3.101-6.089,0l-23.438,85.941v8.838h52.966v-8.838	L329.665,24.394z" fill="#FAEBC8"/><rect x="300.138" y="110.345" width="52.966" height="361.931" fill="#FFDC64"/><path d="M353.103,110.335L353.103,110.335l-23.438-85.941c-0.424-1.549-1.734-2.325-3.044-2.325v88.266	H353.103z" fill="#F5DCB4"/><path d="M341.066,66.197l-11.401-41.803c-0.845-3.101-5.242-3.101-6.089,0l-11.401,41.803H341.066z" fill="#5B5D6E"/><path d="M341.066,66.197l-11.401-41.803c-0.424-1.549-1.734-2.325-3.044-2.325v44.128H341.066z" fill="#464655"/><g><path d="M191.799,454.621c-3.02,0-6.024-1.433-7.431-4.107c-1.476-2.806-4.422-4.721-7.817-4.721h-17.655 v26.483h105.931v-17.655H191.799z" fill="#FFC850"/><path d="M326.621,110.335v335.458c0,4.875-3.953,8.828-8.828,8.828h-17.655v17.655h52.966V110.335H326.621z" fill="#FFC850"/></g></svg>