<svg version="1.1" id="Layer_1" xmlns="http://www.w3.org/2000/svg" xmlns:xlink="http://www.w3.org/1999/xlink" x="0" y="0" viewBox="0 0 512 512" xml:space="preserve" enable-background="new 0 0 512 512"><path d="M379.59,0H123.586c-4.875,0-8.828,3.953-8.828,8.828v432.552h326.621	c4.875,0,8.828-3.953,8.828-8.828V70.618L379.59,0z" fill="#E4EAF8"/><path d="M238.345,441.379H114.759V229.517h88.276c19.501,0,35.31,15.809,35.31,35.31V441.379z" fill="#D5DCED"/><g><path d="M238.345,114.759h-70.621c-4.879,0-8.828-3.953-8.828-8.828c0-4.875,3.948-8.828,8.828-8.828h70.621 c4.879,0,8.828,3.953,8.828,8.828C247.172,110.806,243.224,114.759,238.345,114.759z" fill="#707487"/><path d="M220.69,61.793h-52.966c-4.879,0-8.828-3.953-8.828-8.828s3.948-8.828,8.828-8.828h52.966 c4.879,0,8.828,3.953,8.828,8.828S225.569,61.793,220.69,61.793z" fill="#707487"/></g><path d="M282.483,61.793H256c-4.879,0-8.828-3.953-8.828-8.828s3.948-8.828,8.828-8.828h26.483	c4.879,0,8.828,3.953,8.828,8.828S287.362,61.793,282.483,61.793z" fill="#5B5D6E"/><path d="M344.276,114.759h-70.621c-4.879,0-8.828-3.953-8.828-8.828c0-4.875,3.948-8.828,8.828-8.828h70.621	c4.879,0,8.828,3.953,8.828,8.828C353.103,110.806,349.155,114.759,344.276,114.759z" fill="#707487"/><path d="M397.241,114.759h-17.655c-4.879,0-8.828-3.953-8.828-8.828c0-4.875,3.948-8.828,8.828-8.828h17.655	c4.879,0,8.828,3.953,8.828,8.828C406.069,110.806,402.121,114.759,397.241,114.759z" fill="#5B5D6E"/><g><path d="M397.241,150.069h-70.621c-4.879,0-8.828-3.953-8.828-8.828s3.948-8.828,8.828-8.828h70.621 c4.879,0,8.828,3.953,8.828,8.828S402.121,150.069,397.241,150.069z" fill="#707487"/><path d="M291.31,150.069H220.69c-4.879,0-8.828-3.953-8.828-8.828s3.948-8.828,8.828-8.828h70.621 c4.879,0,8.828,3.953,8.828,8.828S296.19,150.069,291.31,150.069z" fill="#707487"/><path d="M238.345,185.379h-70.621c-4.879,0-8.828-3.953-8.828-8.828s3.948-8.828,8.828-8.828h70.621 c4.879,0,8.828,3.953,8.828,8.828S243.224,185.379,238.345,185.379z" fill="#707487"/></g><path d="M344.276,185.379h-70.621c-4.879,0-8.828-3.953-8.828-8.828s3.948-8.828,8.828-8.828h70.621	c4.879,0,8.828,3.953,8.828,8.828S349.155,185.379,344.276,185.379z" fill="#5B5D6E"/><path d="M397.241,185.379h-17.655c-4.879,0-8.828-3.953-8.828-8.828s3.948-8.828,8.828-8.828h17.655	c4.879,0,8.828,3.953,8.828,8.828S402.121,185.379,397.241,185.379z" fill="#707487"/><path d="M397.241,256h-35.31c-4.879,0-8.828-3.953-8.828-8.828s3.948-8.828,8.828-8.828h35.31	c4.879,0,8.828,3.953,8.828,8.828S402.121,256,397.241,256z" fill="#5B5D6E"/><path d="M397.241,220.69h-70.621c-4.879,0-8.828-3.953-8.828-8.828c0-4.875,3.948-8.828,8.828-8.828h70.621	c4.879,0,8.828,3.953,8.828,8.828C406.069,216.737,402.121,220.69,397.241,220.69z" fill="#707487"/><path d="M397.241,273.655H194.207v17.655h203.034c4.879,0,8.828-3.953,8.828-8.828	S402.121,273.655,397.241,273.655z" fill="#5B5D6E"/><g><path d="M291.31,220.69H220.69c-4.879,0-8.828-3.953-8.828-8.828c0-4.875,3.948-8.828,8.828-8.828h70.621 c4.879,0,8.828,3.953,8.828,8.828C300.138,216.737,296.19,220.69,291.31,220.69z" fill="#707487"/><path d="M326.621,256H167.724c-4.879,0-8.828-3.953-8.828-8.828s3.948-8.828,8.828-8.828h158.897 c4.879,0,8.828,3.953,8.828,8.828S331.5,256,326.621,256z" fill="#707487"/></g><g><path d="M158.897,247.172c0,4.875,3.948,8.828,8.828,8.828h69.508c-1.788-6.944-5.639-13.055-10.855-17.655 h-58.654C162.845,238.345,158.897,242.297,158.897,247.172z" fill="#5B5D6E"/><path d="M397.241,326.621h-35.31c-4.879,0-8.828-3.953-8.828-8.828s3.948-8.828,8.828-8.828h35.31 c4.879,0,8.828,3.953,8.828,8.828S402.121,326.621,397.241,326.621z" fill="#5B5D6E"/></g><path d="M397.241,344.276H194.207v17.655h203.034c4.879,0,8.828-3.953,8.828-8.828	S402.121,344.276,397.241,344.276z" fill="#707487"/><rect x="194.207" y="344.276" width="44.138" height="17.655" fill="#5B5D6E"/><path d="M326.621,326.621h-79.448c-4.879,0-8.828-3.953-8.828-8.828s3.948-8.828,8.828-8.828h79.448	c4.879,0,8.828,3.953,8.828,8.828S331.5,326.621,326.621,326.621z" fill="#707487"/><path d="M203.034,512H79.448c-9.751,0-17.655-7.904-17.655-17.655V264.828	c0-9.751,7.904-17.655,17.655-17.655h123.586c9.751,0,17.655,7.904,17.655,17.655v229.517C220.69,504.096,212.786,512,203.034,512z" fill="#464655"/><path d="M194.207,459.034H88.276c-4.875,0-8.828-3.953-8.828-8.828V291.31c0-4.875,3.953-8.828,8.828-8.828	h105.931c4.875,0,8.828,3.953,8.828,8.828v158.897C203.034,455.082,199.082,459.034,194.207,459.034z" fill="#00C3FF"/><path d="M150.069,494.345h-17.655c-4.879,0-8.828-3.953-8.828-8.828s3.948-8.828,8.828-8.828h17.655	c4.879,0,8.828,3.953,8.828,8.828S154.948,494.345,150.069,494.345z" fill="#5B5D6E"/><path d="M379.586,0v61.793c0,4.875,3.953,8.828,8.828,8.828h61.793L379.586,0z" fill="#D5DCED"/><g><path d="M185.379,150.069h-17.655c-4.879,0-8.828-3.953-8.828-8.828s3.948-8.828,8.828-8.828h17.655 c4.879,0,8.828,3.953,8.828,8.828S190.259,150.069,185.379,150.069z" fill="#5B5D6E"/><path d="M176.552,326.621h-70.621c-4.879,0-8.828-3.953-8.828-8.828s3.948-8.828,8.828-8.828h70.621 c4.879,0,8.828,3.953,8.828,8.828S181.431,326.621,176.552,326.621z" fill="#5B5D6E"/><path d="M176.552,397.241h-70.621c-4.879,0-8.828-3.953-8.828-8.828s3.948-8.828,8.828-8.828h70.621 c4.879,0,8.828,3.953,8.828,8.828S181.431,397.241,176.552,397.241z" fill="#5B5D6E"/></g><g><path d="M176.552,361.931h-26.483c-4.879,0-8.828-3.953-8.828-8.828s3.948-8.828,8.828-8.828h26.483 c4.879,0,8.828,3.953,8.828,8.828S181.431,361.931,176.552,361.931z" fill="#464655"/><path d="M114.759,361.931h-8.828c-4.879,0-8.828-3.953-8.828-8.828s3.948-8.828,8.828-8.828h8.828 c4.879,0,8.828,3.953,8.828,8.828S119.638,361.931,114.759,361.931z" fill="#464655"/><path d="M132.414,432.552h-26.483c-4.879,0-8.828-3.953-8.828-8.828c0-4.875,3.948-8.828,8.828-8.828h26.483 c4.879,0,8.828,3.953,8.828,8.828C141.241,428.599,137.293,432.552,132.414,432.552z" fill="#464655"/><path d="M176.552,432.552h-8.828c-4.879,0-8.828-3.953-8.828-8.828c0-4.875,3.948-8.828,8.828-8.828h8.828 c4.879,0,8.828,3.953,8.828,8.828C185.379,428.599,181.431,432.552,176.552,432.552z" fill="#464655"/></g><path d="M185.379,220.69h-17.655c-4.879,0-8.828-3.953-8.828-8.828c0-4.875,3.948-8.828,8.828-8.828h17.655	c4.879,0,8.828,3.953,8.828,8.828C194.207,216.737,190.259,220.69,185.379,220.69z" fill="#5B5D6E"/></svg>