<svg enable-background="new 0 0 512 512" viewBox="0 0 512 512" xmlns="http://www.w3.org/2000/svg"><path d="m427.809 199.138c-55.876-7.203-103.887 33.141-109.398 86.122-.178 1.705-.822 3.331-1.92 4.649l-27.975 33.57c-2.396 2.874-.351 7.24 3.391 7.24h26.82c3.514 0 6.583 2.137 8.056 5.327 15.382 33.314 49.01 56.466 88.113 56.466 57.367 0 103.115-49.747 96.458-108.456-4.948-43.652-39.975-79.301-83.545-84.918z" fill="#eff2fa"/><path d="m264.828 136.51h-88.276-88.276c-8.828 8.828-10.814 36.137-8.491 50.652l6.02 37.624h90.746 90.748l6.02-37.624c2.322-14.515.336-41.825-8.491-50.652z" fill="#694b4b"/><path d="m187.421 185.463 82.732-21.02c1.204-.306 2.323-.778 3.447-1.24-1.1-11.028-3.835-21.757-8.771-26.694h-88.276-88.277c-8.828 8.828-10.814 36.137-8.491 50.652l6.02 37.624h90.746v-37.964c3.663.002 7.32-.456 10.87-1.358z" fill="#5a4146"/><path d="m327.939 384.961-64.643-19.485h-173.073l-65.059 19.485c-14.935 4.481-25.164 18.228-25.164 33.821v35.521c0 9.75 7.905 17.655 17.655 17.655h317.793c9.75 0 17.655-7.905 17.655-17.655v-35.521c0-15.593-10.229-29.34-25.164-33.821z" fill="#464655"/><path d="m238.345 304.235v49.288l-61.793 50.339-61.793-50.339v-49.288z" fill="#d29b6e"/><g fill="#5b5d6e"><path d="m252.349 347.308c-2.812-4.216-8.587-5.206-12.642-2.165l-63.155 47.367-63.155-47.367c-4.054-3.041-9.831-2.051-12.642 2.165l-12.479 18.719 38.719 54.207c2.944 4.121 8.744 4.926 12.697 1.762l20.861-16.689c2.89-2.312 7.171-.255 7.171 3.446v63.203h17.655v-63.203c0-3.701 4.281-5.759 7.171-3.446l20.861 16.689c3.955 3.164 9.754 2.359 12.697-1.762l38.719-54.207z"/><path d="m52.264 428.707-41.939-34.828c-6.44 6.465-10.325 15.324-10.325 24.903v35.521c0 9.75 7.905 17.655 17.655 17.655h44.138v-22.906c0-7.86-3.491-15.313-9.529-20.345z"/><path d="m353.103 454.303v-35.521c0-9.611-3.907-18.503-10.386-24.973l-41.878 34.899c-6.038 5.032-9.529 12.484-9.529 20.344v22.906h44.138c9.75 0 17.655-7.904 17.655-17.655z"/></g><path d="m414.897 366.027c-38.94 0-70.621-31.681-70.621-70.621s31.681-70.621 70.621-70.621 70.621 31.681 70.621 70.621c0 17.341-7.319 31.021-20.086 37.59-10.422 5.366-23.155 4.888-31.699-1.219-2.379-1.703-4.337-3.737-5.818-6.03-1.802 1.366-3.715 2.612-5.732 3.715-9.362 5.142-19.345 6.216-27.362 2.922-7.914-3.242-13.775-9.495-16.509-17.608-3.353-9.974-1.492-21.771 5.259-33.228 7.086-12.052 16.276-20.116 27.31-23.975 8.785-3.073 18.354-1.28 25.621 4.798 7.491 6.268 11.19 16.104 9.655 25.677l-1.845 11.534c-.018.104-.034.207-.052.31l-2.069 12.927c-.301 2.06.233 3.47 1.802 4.59 2.733 1.949 8.199 2.548 13.362-.113 6.776-3.487 10.508-11.242 10.508-21.832 0-29.267-23.758-53.026-52.966-53.026-29.207 0-52.966 23.758-52.966 52.966 0 29.207 23.758 52.966 52.966 52.966 2.526 0 5.078-.181 7.595-.538 4.802-.719 9.293 2.673 9.983 7.5.681 4.828-2.673 9.298-7.5 9.983-3.337.472-6.725.712-10.078.712zm4.585-92.271c-.862 0-1.793.138-2.776.483-7.078 2.478-12.94 7.797-17.931 16.267-4.104 6.974-5.431 13.594-3.733 18.638 1.069 3.181 3.371 5.633 6.465 6.905 2.974 1.219 7.647.423 12.181-2.065 6.871-3.767 11.905-10.306 13.173-17.086l1.863-11.642c.561-3.518-.767-7.009-3.552-9.341-.896-.749-2.947-2.159-5.69-2.159z" fill="#59d8ff"/><path d="m264.828 215.958h-10.418c-4.207 0-7.831-2.97-8.657-7.096l-4.57-22.849c-1.651-8.253-8.896-14.193-17.312-14.193h-94.639c-8.416 0-15.661 5.94-17.312 14.193l-4.57 22.849c-.825 4.126-4.448 7.096-8.657 7.096h-10.417c-9.75 0-17.655 7.904-17.655 17.655v17.655c0 9.75 7.905 17.655 17.655 17.655h4.59l2.145 13.41c1.348 8.428 5.705 16.083 12.262 21.547l35.43 29.524c4.759 3.966 10.759 6.138 16.953 6.138h33.79c6.195 0 12.194-2.173 16.953-6.138l35.43-29.524c6.557-5.464 10.913-13.119 12.262-21.547l2.145-13.41h4.593c9.75 0 17.655-7.905 17.655-17.655v-17.655c-.001-9.751-7.906-17.655-17.656-17.655z" fill="#f0c087"/><path d="m150.069 277.983v-79.679c0-4.875 3.953-8.828 8.828-8.828h82.979l-.692-3.462c-1.65-8.253-8.896-14.194-17.312-14.194h-94.639c-8.416 0-15.661 5.94-17.312 14.193l-4.57 22.849c-.825 4.126-4.448 7.096-8.657 7.096h-10.418c-9.751 0-17.655 7.904-17.655 17.655v17.655c0 9.751 7.904 17.655 17.655 17.655h4.59l2.145 13.41c1.348 8.428 5.704 16.083 12.262 21.547l35.432 29.526c4.759 3.966 10.758 6.137 16.952 6.137h8.067l-14.937-44.811c-1.8-5.4-2.718-11.056-2.718-16.749z" fill="#e6af78"/><path d="m308.966 74.715h17.655v79.448h-17.655z" fill="#464655"/><path d="m89.743 83.544-8.968 53.782c-.755 4.527 2.086 8.878 6.534 10.008l82.722 21.017c4.279 1.087 8.764 1.087 13.043 0l82.732-21.02c4.442-1.129 7.279-5.474 6.526-9.995l-8.97-53.792z" fill="#5b5d6e"/><path d="m183.722 126.702 84.152-16.086-4.514-27.072h-173.617l-8.968 53.782c-.755 4.527 2.086 8.877 6.534 10.008l82.721 21.017c2.14.544 4.33.815 6.521.815v-33.793c.001-4.236 3.01-7.875 7.171-8.671z" fill="#464655"/><path d="m170.004 40.665-157.744 30.046c-4.419.842-4.419 7.169 0 8.011l157.743 30.046c4.365.832 8.849.832 13.214 0l157.743-30.046c4.419-.842 4.419-7.169 0-8.011l-157.742-30.046c-4.366-.832-8.849-.832-13.214 0z" fill="#707487"/><path d="m317.793 145.337c-9.751 0-17.655 7.904-17.655 17.655v26.483c0 4.875 3.953 8.828 8.828 8.828h17.655c4.875 0 8.828-3.953 8.828-8.828v-26.483c-.001-9.749-7.905-17.655-17.656-17.655z" fill="#5b5d6e"/></svg>