<svg enable-background="new 0 0 511.999 511.999" viewBox="0 0 511.999 511.999" xmlns="http://www.w3.org/2000/svg"><path d="m300.086 83.505h17.659v79.467h-17.659z" fill="#464655"/><path d="m167.645 92.334c-58.518 0-105.956 47.437-105.956 105.956 0 26.873 26.489 220.741 26.489 220.741h158.934s26.489-193.868 26.489-220.741c0-58.519-47.439-105.956-105.956-105.956z" fill="#694b4b"/><path d="m269.523 169.454c-12.571-44.485-53.371-77.121-101.88-77.121-58.518 0-105.956 47.437-105.956 105.956 0 26.873 26.489 220.741 26.489 220.741h113.889v-230.738l59.201-15.041c3.034-.771 5.785-2.109 8.257-3.797z" fill="#5a4146"/><path d="m301.447 385.749-78.788-32.829c-6.58-2.742-10.867-9.172-10.867-16.302v-21.338h-88.296v21.338c0 7.129-4.287 13.559-10.867 16.302l-78.789 32.829c-9.87 4.112-16.301 13.758-16.301 24.451v35.319c0 9.752 7.907 17.659 17.659 17.659h264.889c9.752 0 17.659-7.907 17.659-17.659v-35.319c.003-10.693-6.427-20.338-16.299-24.451z" fill="#d29b6e"/><path d="m301.447 385.749-72.821-30.342-43.323 37.134h-35.319l-48.795-34.854-67.349 28.062c-9.87 4.112-16.301 13.758-16.301 24.451v35.319c0 9.752 7.907 17.659 17.659 17.659h264.889c9.752 0 17.659-7.907 17.659-17.659v-35.319c.003-10.693-6.427-20.338-16.299-24.451z" fill="#464655"/><path d="m255.941 215.949h-1.606l.992-10.921c.361-3.976-2.036-7.584-5.737-9.08-12.48-5.048-22.574-11.757-29.182-16.822-5.313-4.073-12.366-4.408-18.342-1.391-32.326 16.323-90.707 19.682-113.37 20.374-5.074.155-8.95 4.569-8.49 9.623l.747 8.215h-1.606c-9.753 0-17.659 7.906-17.659 17.659v17.659c0 9.753 7.906 17.659 17.659 17.659h6.421l.716 7.885c1.058 11.64 7.805 22.001 18.022 27.678l45.984 25.546c10.667 5.926 23.637 5.926 34.304 0l45.984-25.546c10.217-5.675 16.964-16.038 18.022-27.678l.716-7.885h6.421c9.753 0 17.659-7.906 17.659-17.659v-17.659c.005-9.751-7.902-17.657-17.655-17.657z" fill="#f0c087"/><path d="m427.789 216.783c-55.889-7.205-103.912 33.149-109.424 86.142-.178 1.705-.822 3.332-1.92 4.65l-27.981 33.578c-2.396 2.875-.351 7.241 3.392 7.241h26.827c3.515 0 6.585 2.138 8.058 5.329 15.386 33.322 49.021 56.479 88.133 56.479 57.381 0 103.139-49.759 96.48-108.481-4.95-43.664-39.985-79.32-83.565-84.938z" fill="#eff2fa"/><circle cx="414.871" cy="313.076" fill="#59d8ff" r="61.807"/><path d="m249.591 195.946c-12.48-5.048-22.574-11.757-29.181-16.82-5.313-4.073-12.366-4.408-18.342-1.391-32.326 16.323-90.707 19.682-113.37 20.374-5.074.155-8.95 4.569-8.49 9.623l.747 8.215h-1.606c-9.753 0-17.659 7.906-17.659 17.659v17.659c0 9.753 7.906 17.659 17.659 17.659h6.421l.716 7.884c1.058 11.64 7.805 22.001 18.022 27.678l45.984 25.546c5.193 2.885 10.932 4.34 16.686 4.415l-19.623-29.435c-4.196-6.294-6.704-13.56-7.284-21.103l-4.846-62.994c-.361-4.691 3.022-8.792 7.683-9.433 23.225-3.192 48.262-8.66 66.965-18.052 8.937 6.792 22.955 15.834 40.284 21.609l2.997.999.977-.031.998-10.983c.359-3.973-2.038-7.581-5.738-9.078z" fill="#e6af78"/><g fill="#5b5d6e"><path d="m234.979 347.854c-2.939-4.408-9.07-5.254-13.093-1.806l-48.496 41.568c-3.307 2.834-8.186 2.834-11.493 0l-48.496-41.568c-4.023-3.448-10.154-2.601-13.093 1.806l-12.132 18.198 30.197 52.844c2.69 4.707 8.948 5.902 13.182 2.514l20.085-16.068c2.891-2.312 7.173-.255 7.173 3.447v54.388h17.659v-54.388c0-3.702 4.282-5.76 7.173-3.447l20.085 16.068c4.234 3.387 10.492 2.193 13.182-2.514l30.197-52.844z"/><path d="m60.987 419.917-34.918-29.098c-5.309 4.923-8.529 11.87-8.529 19.382v35.319c0 9.753 7.906 17.659 17.659 17.659h35.319v-22.912c.001-7.862-3.491-15.317-9.531-20.35z"/><path d="m274.301 419.917 34.918-29.098c5.309 4.923 8.529 11.87 8.529 19.382v35.319c0 9.753-7.906 17.659-17.659 17.659h-35.319v-22.912c.001-7.862 3.492-15.317 9.531-20.35z"/><path d="m80.815 92.334-8.97 53.795c-.755 4.529 2.086 8.88 6.535 10.011l82.741 21.022c4.28 1.087 8.766 1.087 13.046 0l82.751-21.024c4.444-1.129 7.281-5.475 6.527-9.997l-8.972-53.805h-173.658z"/></g><path d="m174.817 135.501 84.172-16.09-4.515-27.078h-173.659l-8.97 53.795c-.755 4.529 2.086 8.879 6.535 10.011l82.74 21.022c2.14.544 4.331.816 6.523.816v-33.801c.002-4.239 3.012-7.879 7.174-8.675z" fill="#464655"/><path d="m161.095 49.444-157.78 30.054c-4.42.842-4.42 7.171 0 8.013l157.78 30.053c4.366.832 8.851.832 13.217 0l157.78-30.053c4.42-.842 4.42-7.171 0-8.013l-157.78-30.054c-4.366-.831-8.85-.831-13.217 0z" fill="#707487"/><path d="m308.919 154.141c-9.753 0-17.659 7.906-17.659 17.659v26.489c0 4.876 3.953 8.83 8.83 8.83h17.659c4.876 0 8.83-3.953 8.83-8.83v-26.489c-.001-9.753-7.908-17.659-17.66-17.659z" fill="#5b5d6e"/><path d="m450.193 339.564c-34.135 0-61.807-27.672-61.807-61.807 0-7.866 1.528-15.361 4.207-22.282-23.109 8.948-39.526 31.332-39.526 57.6 0 34.135 27.672 61.807 61.807 61.807 26.268 0 48.652-16.417 57.6-39.526-6.919 2.68-14.415 4.208-22.281 4.208z" fill="#00c3f0"/><path d="m423.704 285.972c13.523-1.698 25.841-7.259 35.885-15.492-4.243-4.452-9.123-8.28-14.526-11.312-6.299 4.402-13.478 7.63-21.359 8.96v-16.159c-2.892-.415-5.823-.702-8.83-.702s-5.938.287-8.83.702v16.159c-7.88-1.331-15.06-4.558-21.359-8.96-5.403 3.032-10.282 6.86-14.525 11.312 10.045 8.233 22.361 13.794 35.884 15.492v18.273h-52.276c-.415 2.892-.702 5.823-.702 8.83s.287 5.938.702 8.83h52.276v18.273c-13.522 1.697-25.84 7.259-35.884 15.492 4.243 4.452 9.122 8.279 14.525 11.312 6.299-4.402 13.478-7.629 21.36-8.96v16.159c2.892.415 5.823.702 8.83.702s5.938-.287 8.83-.702v-16.159c7.88 1.331 15.061 4.558 21.36 8.96 5.403-3.032 10.282-6.859 14.525-11.312-10.045-8.233-22.361-13.794-35.884-15.492v-18.273h52.276c.415-2.892.702-5.823.702-8.83 0-3.006-.287-5.938-.702-8.83h-52.276v-18.273z" fill="#d5dced"/><path d="m370.16 355.668c4.243 4.452 9.122 8.279 14.525 11.312 6.299-4.402 13.478-7.629 21.36-8.96v16.159c2.892.415 5.823.702 8.83.702 3.004 0 5.941-.273 8.83-.688v-16.175c7.829 1.322 14.964 4.517 21.234 8.873 5.413-3.041 10.291-6.852 14.538-11.321-10.024-8.182-22.301-13.705-35.772-15.396v-6.641c-12.825-6.102-23.189-16.465-29.291-29.291h-40.659c-.415 2.888-.688 5.825-.688 8.83 0 3.006.287 5.938.702 8.83h52.276v18.273c-13.522 1.699-25.841 7.26-35.885 15.493z" fill="#c7cfe2"/><path d="m384.744 259.21c-5.411 3.029-10.324 6.829-14.576 11.278 5.506 4.512 11.695 8.206 18.4 10.906-.071-1.211-.184-2.409-.184-3.638 0-5.213.725-10.241 1.958-15.069-1.957-1.029-3.794-2.219-5.598-3.477z" fill="#c7cfe2"/></svg>