<svg enable-background="new 0 0 512 512" viewBox="0 0 512 512" xmlns="http://www.w3.org/2000/svg"><path d="m484.571 365.714h-457.142c-10.099 0-18.286-8.186-18.286-18.286v-329.142c0-10.1 8.186-18.286 18.286-18.286h457.143c10.099 0 18.286 8.186 18.286 18.286v329.143c-.001 10.099-8.187 18.285-18.287 18.285z" fill="#707487"/><path d="m337.893 311.066c-1.407-.141-2.801-.209-4.178-.209-5.882 0-11.481 1.241-16.547 3.475-6.534-6.837-15.267-11.435-24.989-12.408-1.407-.142-2.801-.21-4.178-.21-5.798 0-11.411 1.191-16.565 3.457-6.531-6.829-15.258-11.418-24.971-12.391-1.407-.141-2.801-.209-4.178-.209-1.539 0-3.064.083-4.571.249v-85.803c0-21.609-16.237-40.162-36.965-42.237-1.407-.141-2.801-.209-4.178-.209-10.99 0-21.322 4.279-29.093 12.05-7.77 7.77-12.05 18.103-12.05 29.093v160h219.429v-12.411c-.002-21.609-16.238-40.161-36.966-42.237z" fill="#5b5d6e"/><path d="m170.137 338.286h-124.423c-5.049 0-9.143-4.094-9.143-9.143v-292.572c0-5.049 4.094-9.143 9.143-9.143h420.571c5.049 0 9.143 4.094 9.143 9.143v292.571c0 5.049-4.094 9.143-9.143 9.143h-156.62" fill="#fff"/><path d="m372.112 338.286c-5.451-14.627-18.533-25.649-34.218-27.219-1.408-.141-2.802-.209-4.179-.209-5.882 0-11.481 1.241-16.547 3.475-6.534-6.837-15.267-11.435-24.989-12.408-1.407-.142-2.801-.21-4.178-.21-5.798 0-11.411 1.191-16.565 3.457-6.531-6.829-15.258-11.418-24.971-12.391-1.407-.141-2.801-.209-4.178-.209-1.539 0-3.064.083-4.571.249v-85.803c0-21.609-16.237-40.162-36.965-42.237-1.407-.141-2.801-.209-4.178-.209-10.99 0-21.322 4.279-29.093 12.05-7.77 7.77-12.05 18.103-12.05 29.093v132.571z" fill="#e4eaf8"/><path d="m420.571 91.429h-237.714c-5.054 0-9.143-4.089-9.143-9.143s4.089-9.143 9.143-9.143h237.714c5.054 0 9.143 4.089 9.143 9.143s-4.089 9.143-9.143 9.143z" fill="#c84146"/><path d="m420.571 201.143h-82.286c-5.054 0-9.143-4.089-9.143-9.143s4.089-9.143 9.143-9.143h82.286c5.054 0 9.143 4.089 9.143 9.143s-4.089 9.143-9.143 9.143z" fill="#5b5d6e"/><path d="m301.714 201.143h-36.571c-5.054 0-9.143-4.089-9.143-9.143s4.089-9.143 9.143-9.143h36.571c5.054 0 9.143 4.089 9.143 9.143s-4.089 9.143-9.143 9.143z" fill="#7f8499"/><path d="m393.143 237.714h-128c-5.054 0-9.143-4.089-9.143-9.143s4.089-9.143 9.143-9.143h128c5.054 0 9.143 4.089 9.143 9.143s-4.089 9.143-9.143 9.143z" fill="#7f8499"/><path d="m393.143 274.286h-18.286c-5.054 0-9.143-4.089-9.143-9.143s4.089-9.143 9.143-9.143h18.286c5.054 0 9.143 4.089 9.143 9.143s-4.089 9.143-9.143 9.143z" fill="#7f8499"/><path d="m338.286 274.286h-73.143c-5.054 0-9.143-4.089-9.143-9.143s4.089-9.143 9.143-9.143h73.143c5.054 0 9.143 4.089 9.143 9.143s-4.09 9.143-9.143 9.143z" fill="#5b5d6e"/><path d="m301.714 128h-118.857c-5.054 0-9.143-4.089-9.143-9.143s4.089-9.143 9.143-9.143h118.857c5.054 0 9.143 4.089 9.143 9.143s-4.089 9.143-9.143 9.143z" fill="#ff5050"/><path d="m356.571 420.571v-67.269c0-11.957-8.603-22.851-20.501-24.042-13.681-1.369-25.214 9.338-25.214 22.739v-7.84c0-11.957-8.603-22.851-20.501-24.042-13.681-1.369-25.214 9.338-25.214 22.739v-7.84c0-11.957-8.603-22.851-20.501-24.042-13.681-1.369-25.214 9.338-25.214 22.739v-126.696c0-11.957-8.603-22.851-20.501-24.042-13.681-1.369-25.214 9.338-25.214 22.739v214.857c0 50.495 40.934 91.429 91.429 91.429 50.498 0 91.431-40.934 91.431-91.429z" fill="#f0c087"/><g fill="#e6af78"><path d="m192 420.571v-214.857c0-9.331 5.649-17.251 13.664-20.802-2.096-.967-4.325-1.695-6.736-1.936-13.681-1.37-25.214 9.337-25.214 22.738v214.857c0 50.495 40.934 91.429 91.429 91.429 3.087 0 6.135-.163 9.143-.462-46.201-4.588-82.286-43.559-82.286-90.967z"/><path d="m228.571 347.429c5.049 0 9.143-4.094 9.143-9.143v-4.571c0-9.331 5.649-17.251 13.664-20.802-2.096-.967-4.325-1.695-6.736-1.936-13.681-1.37-25.214 9.337-25.214 22.738v4.571c.001 5.049 4.094 9.143 9.143 9.143z"/><path d="m274.286 356.571c5.049 0 9.143-4.094 9.143-9.143v-4.571c0-9.331 5.649-17.251 13.664-20.802-2.096-.967-4.325-1.695-6.736-1.936-13.681-1.37-25.214 9.337-25.214 22.738v4.571c0 5.05 4.094 9.143 9.143 9.143z"/><path d="m320 365.714c5.049 0 9.143-4.094 9.143-9.143v-4.571c0-9.331 5.649-17.251 13.664-20.802-2.096-.967-4.325-1.695-6.736-1.936-13.681-1.37-25.214 9.337-25.214 22.738v4.571c0 5.05 4.094 9.143 9.143 9.143z"/></g><path d="m82.286 27.429v119.431c0 3.663 4.082 5.848 7.13 3.816l20.298-13.533 20.298 13.533c3.048 2.032 7.13-.153 7.13-3.816v-119.431z" fill="#ff5050"/><path d="m82.286 27.429v119.431c0 3.663 4.082 5.848 7.13 3.816l20.298-13.533v-109.714z" fill="#c84146"/></svg>