<svg enable-background="new 0 0 512 512" viewBox="0 0 512 512" xmlns="http://www.w3.org/2000/svg"><path d="m494.345 472.276h-476.69c-9.751 0-17.655-7.904-17.655-17.655v-397.242c0-9.751 7.904-17.655 17.655-17.655h476.69c9.751 0 17.655 7.904 17.655 17.655v397.241c0 9.752-7.904 17.656-17.655 17.656z" fill="#e4eaf8"/><path d="m512 83.862h-512v-26.483c0-9.751 7.904-17.655 17.655-17.655h476.69c9.751 0 17.655 7.904 17.655 17.655z" fill="#d5dced"/><path d="m467.862 260.414h-423.724c-4.875 0-8.828-3.953-8.828-8.828v-123.586c0-4.875 3.953-8.828 8.828-8.828h423.724c4.875 0 8.828 3.953 8.828 8.828v123.586c0 4.875-3.953 8.828-8.828 8.828z" fill="#fff"/><path d="m467.862 436.966h-423.724c-4.875 0-8.828-3.953-8.828-8.828v-123.586c0-4.875 3.953-8.828 8.828-8.828h423.724c4.875 0 8.828 3.953 8.828 8.828v123.586c0 4.875-3.953 8.828-8.828 8.828z" fill="#fff"/><path d="m158.897 260.414h-114.759c-4.875 0-8.828-3.953-8.828-8.828v-123.586c0-4.875 3.953-8.828 8.828-8.828h114.759c4.875 0 8.828 3.953 8.828 8.828v123.586c-.001 4.875-3.953 8.828-8.828 8.828z" fill="#00c3ff"/><path d="m158.897 436.966h-114.759c-4.875 0-8.828-3.953-8.828-8.828v-123.586c0-4.875 3.953-8.828 8.828-8.828h114.759c4.875 0 8.828 3.953 8.828 8.828v123.586c-.001 4.875-3.953 8.828-8.828 8.828z" fill="#7df5a5"/><path d="m132.414 154.483h-22.069c0-4.875-3.948-8.828-8.828-8.828-4.879 0-8.828 3.953-8.828 8.828h-22.068c-4.879 0-8.828 3.953-8.828 8.828s3.948 8.828 8.828 8.828h35.903c-.759 4.676-2.179 10.696-4.874 17.015-.366-.857-.845-1.588-1.184-2.476-1.732-4.561-6.819-6.845-11.388-5.112-4.561 1.732-6.845 6.831-5.112 11.388 1.817 4.777 4.02 9.234 6.546 13.377-3.965 4.16-8.834 7.914-14.881 10.817-4.396 2.108-6.25 7.38-4.138 11.776 1.517 3.164 4.672 5.009 7.966 5.009 1.276 0 2.578-.28 3.81-.871 7.334-3.519 13.325-7.947 18.311-12.82 5.32 5.209 11.383 9.555 18.189 12.82 1.233.595 2.535.871 3.81.871 3.293 0 6.449-1.845 7.966-5.009 2.112-4.396.258-9.668-4.138-11.776-5.673-2.722-10.546-6.446-14.786-10.914 7.616-12.597 10.614-25.709 11.737-34.094h8.056c4.879 0 8.828-3.953 8.828-8.828s-3.949-8.829-8.828-8.829z" fill="#fff"/><path d="m140.974 399.513-15.982-63.935c-1.966-7.876-9.01-13.372-17.13-13.372h-12.69c-8.12 0-15.164 5.495-17.129 13.37l-15.982 63.935c-1.19 4.733 1.689 9.526 6.422 10.707 4.698 1.176 9.517-1.703 10.698-6.422l2.743-10.969h39.187l2.742 10.969c1 4.009 4.595 6.69 8.552 6.686.707 0 1.431-.082 2.146-.263 4.734-1.181 7.613-5.973 6.423-10.706zm-54.634-24.341 8.832-35.31h12.698l8.828 35.31z" fill="#fff"/><path d="m300.138 172.138h-88.276c-4.879 0-8.828-3.953-8.828-8.828s3.948-8.828 8.828-8.828h88.276c4.879 0 8.828 3.953 8.828 8.828s-3.949 8.828-8.828 8.828z" fill="#5b5d6e"/><path d="m370.759 207.448h-158.897c-4.879 0-8.828-3.953-8.828-8.828s3.948-8.828 8.828-8.828h158.897c4.879 0 8.828 3.953 8.828 8.828-.001 4.876-3.949 8.828-8.828 8.828z" fill="#707487"/><path d="m406.069 172.138h-70.621c-4.879 0-8.828-3.953-8.828-8.828s3.948-8.828 8.828-8.828h70.621c4.879 0 8.828 3.953 8.828 8.828s-3.949 8.828-8.828 8.828z" fill="#707487"/><path d="m282.483 348.69h-70.621c-4.879 0-8.828-3.953-8.828-8.828s3.948-8.828 8.828-8.828h70.621c4.879 0 8.828 3.953 8.828 8.828s-3.949 8.828-8.828 8.828z" fill="#5b5d6e"/><path d="m335.448 384h-123.586c-4.879 0-8.828-3.953-8.828-8.828s3.948-8.828 8.828-8.828h123.586c4.879 0 8.828 3.953 8.828 8.828s-3.948 8.828-8.828 8.828z" fill="#707487"/><path d="m388.414 348.69h-70.621c-4.879 0-8.828-3.953-8.828-8.828s3.948-8.828 8.828-8.828h70.621c4.879 0 8.828 3.953 8.828 8.828s-3.949 8.828-8.828 8.828z" fill="#707487"/><path d="m26.483 75.034h-8.828c-4.875 0-8.828-3.953-8.828-8.828v-8.828c0-4.875 3.953-8.828 8.828-8.828h8.828c4.875 0 8.828 3.953 8.828 8.828v8.828c-.001 4.876-3.953 8.828-8.828 8.828z" fill="#e4eaf8"/><path d="m423.724 75.034h-8.828c-4.875 0-8.828-3.953-8.828-8.828v-8.828c0-4.875 3.953-8.828 8.828-8.828h8.828c4.875 0 8.828 3.953 8.828 8.828v8.828c0 4.876-3.953 8.828-8.828 8.828z" fill="#ff5050"/><path d="m459.034 75.034h-8.828c-4.875 0-8.828-3.953-8.828-8.828v-8.828c0-4.875 3.953-8.828 8.828-8.828h8.828c4.875 0 8.828 3.953 8.828 8.828v8.828c0 4.876-3.952 8.828-8.828 8.828z" fill="#fff082"/><path d="m494.345 75.034h-8.828c-4.875 0-8.828-3.953-8.828-8.828v-8.828c0-4.875 3.953-8.828 8.828-8.828h8.828c4.875 0 8.828 3.953 8.828 8.828v8.828c-.001 4.876-3.953 8.828-8.828 8.828z" fill="#a0ffb4"/></svg>