<svg enable-background="new 0 0 512 512" viewBox="0 0 512 512" xmlns="http://www.w3.org/2000/svg"><path d="m448 0h-384c-35.328 0-64 28.672-64 64v384c0 35.328 28.672 64 64 64h384c35.36 0 64-28.672 64-64v-384c0-35.36-28.672-64-64-64z" fill="#0277bd"/><g fill="#eceff1"><path d="m224 384c0 17.664-14.336 32-32 32h-96c-17.696 0-32-14.336-32-32v-288c0-17.696 14.304-32 32-32h96c17.664 0 32 14.304 32 32z"/><path d="m448 256c0 17.664-14.336 32-32 32h-96c-17.696 0-32-14.336-32-32v-160c0-17.696 14.304-32 32-32h96c17.664 0 32 14.304 32 32z"/></g></svg>