<svg enable-background="new 0 0 512 512" viewBox="0 0 512 512" xmlns="http://www.w3.org/2000/svg"><path d="m426.667 512h-341.334c-9.922 0-17.965-8.043-17.965-17.965v-467.088c0-9.922 8.043-17.965 17.965-17.965h341.333c9.922 0 17.965 8.043 17.965 17.965v467.088c.001 9.922-8.042 17.965-17.964 17.965z" fill="#00aaf0"/><path d="m186.14 103.134-19.965-13.31-19.965 13.31c-2.984 1.99-6.983-.149-6.983-3.737v-90.415c0-4.961 4.022-8.982 8.982-8.982h35.93c4.961 0 8.982 4.022 8.982 8.982v90.415c.002 3.588-3.997 5.727-6.981 3.737z" fill="#e4eaf8"/><path d="m103.298 512v-503.018h-17.965c-9.922 0-17.965 8.043-17.965 17.965v467.088c0 9.922 8.043 17.965 17.965 17.965z" fill="#0096dc"/><path d="m247.018 152.702v89.825h-89.825c-4.961 0-8.982 4.022-8.982 8.982v125.754c0 4.961 4.022 8.982 8.982 8.982h224.561c4.961 0 8.982-4.022 8.982-8.982v-224.561c0-4.961-4.022-8.982-8.982-8.982h-125.754c-4.961-.001-8.982 4.021-8.982 8.982z" fill="#c7cfe2"/><path d="m247.018 134.737v89.825h-89.825c-4.961 0-8.982 4.022-8.982 8.982v125.754c0 4.961 4.022 8.982 8.982 8.982h224.561c4.961 0 8.982-4.022 8.982-8.982v-224.561c0-4.961-4.022-8.982-8.982-8.982h-125.754c-4.961-.001-8.982 4.021-8.982 8.982z" fill="#e4eaf8"/><path d="m318.877 204.351c-6.201 0-11.228 5.027-11.228 11.228v69.614h-51.809c2.827-3.706 3.248-8.87.519-12.965-3.447-5.163-10.412-6.539-15.57-3.114l-26.947 17.965c-3.123 2.083-5 5.588-5 9.342s1.877 7.259 5 9.342l26.947 17.965c1.912 1.277 4.079 1.886 6.219 1.886 3.623 0 7.184-1.755 9.351-5 2.73-4.094 2.308-9.259-.518-12.965h63.036c6.201 0 11.228-5.027 11.228-11.228v-80.842c0-6.201-5.027-11.228-11.228-11.228z" fill="#5b5d6e"/><path d="m148.211 0c-4.961 0-8.982 4.022-8.982 8.982v90.415c0 3.587 3.998 5.726 6.983 3.737l19.965-13.31v-89.824z" fill="#d5dced"/></svg>