<svg enable-background="new 0 0 512 512" viewBox="0 0 512 512" xmlns="http://www.w3.org/2000/svg"><path d="m97.103 17.655c0-9.751 7.904-17.655 17.656-17.655h264.828l88.276 88.276v406.069c0 9.751-7.904 17.655-17.655 17.655h-335.449c-9.751 0-17.655-7.904-17.655-17.655v-476.69z" fill="#e4eaf8"/><path d="m379.586 0v70.621c0 9.75 7.905 17.655 17.655 17.655h70.621z" fill="#d5dced"/><path d="m300.138 467.862h-203.035v-158.896h203.034c19.501 0 35.31 15.809 35.31 35.31v88.276c.001 19.501-15.808 35.31-35.309 35.31z" fill="#d5dced"/><path d="m300.138 450.207h-238.345c-9.751 0-17.655-7.904-17.655-17.655v-88.276c0-9.751 7.904-17.655 17.655-17.655h238.345c9.751 0 17.655 7.904 17.655 17.655v88.276c0 9.751-7.904 17.655-17.655 17.655z" fill="#707487"/><path d="m215.559 248.11-25.822 11.066c-4.761 2.04-9.575-2.773-7.534-7.534l11.066-25.822c1.327-3.096 3.233-5.912 5.615-8.294l109.011-109.011c3.447-3.447 9.037-3.447 12.484 0l12.484 12.484c3.447 3.447 3.447 9.037 0 12.484l-109.01 109.013c-2.383 2.381-5.198 4.287-8.294 5.614z" fill="#7f8499"/><g fill="#fff"><path d="m208.69 355.147c-3.767-3.112-9.311-2.612-12.439 1.129l-15.285 18.342-15.285-18.342c-3.121-3.742-8.681-4.242-12.439-1.129-3.742 3.121-4.25 8.69-1.129 12.439l17.356 20.828-17.356 20.828c-3.121 3.75-2.612 9.319 1.129 12.439 1.655 1.37 3.656 2.044 5.646 2.044 2.535 0 5.043-1.078 6.793-3.172l15.285-18.342 15.285 18.342c1.75 2.094 4.258 3.172 6.793 3.172 1.992 0 3.991-.672 5.646-2.044 3.742-3.121 4.25-8.69 1.129-12.439l-17.356-20.828 17.356-20.828c3.121-3.749 2.612-9.318-1.129-12.439z"/><path d="m132.414 353.103h-52.966c-4.879 0-8.828 3.948-8.828 8.828s3.948 8.828 8.828 8.828h17.655v44.138c0 4.879 3.948 8.828 8.828 8.828 4.879 0 8.828-3.948 8.828-8.828v-44.138h17.655c4.879 0 8.828-3.948 8.828-8.828s-3.949-8.828-8.828-8.828z"/><path d="m282.483 353.103h-52.966c-4.879 0-8.828 3.948-8.828 8.828s3.948 8.828 8.828 8.828h17.655v44.138c0 4.879 3.948 8.828 8.828 8.828 4.879 0 8.828-3.948 8.828-8.828v-44.138h17.655c4.879 0 8.828-3.948 8.828-8.828s-3.949-8.828-8.828-8.828z"/></g><path d="m379.586 273.655h-141.241c-4.879 0-8.828-3.948-8.828-8.828 0-4.879 3.948-8.828 8.828-8.828h141.241c4.879 0 8.828 3.948 8.828 8.828s-3.948 8.828-8.828 8.828z" fill="#5b5d6e"/><path d="m344.276 238.345h-70.621c-4.879 0-8.828-3.948-8.828-8.828s3.948-8.828 8.828-8.828h70.621c4.879 0 8.828 3.948 8.828 8.828s-3.949 8.828-8.828 8.828z" fill="#7f8499"/><path d="m245.653 108.339h35.31v139.463h-35.31z" fill="#5b5d6e" transform="matrix(.7071 .7071 -.7071 .7071 203.0361 -134.0313)"/></svg>