<svg enable-background="new 0 0 512 512" viewBox="0 0 512 512" xmlns="http://www.w3.org/2000/svg"><path d="m423.724 290.764h-158.896v-70.621h-17.655v70.621h-158.897c-14.603 0-26.483 11.88-26.483 26.483v61.793c0 4.875 3.948 8.828 8.828 8.828s8.828-3.953 8.828-8.828v-61.793c0-4.866 3.957-8.828 8.828-8.828h158.897v70.621h17.655v-70.621h158.897c4.871 0 8.828 3.961 8.828 8.828v61.793c0 4.875 3.948 8.828 8.828 8.828 4.879 0 8.828-3.953 8.828-8.828v-61.793c-.003-14.603-11.883-26.483-26.486-26.483z" fill="#c7cfe2"/><g fill="#afb9d2"><path d="m247.172 220.138h17.655v26.483h-17.655z"/><path d="m247.172 352.552h17.655v26.483h-17.655z"/><path d="m61.793 352.552h17.655v26.483h-17.655z"/><path d="m432.552 352.552h17.655v26.483h-17.655z"/></g><path d="m370.759 78.902c4.875 0 8.828-3.953 8.828-8.828v-11.433c0-3.731-2.345-7.059-5.858-8.313l-111.79-39.925c-3.84-1.372-8.036-1.372-11.876 0l-111.79 39.925c-3.513 1.255-5.858 4.583-5.858 8.313v11.434c0 4.875 3.953 8.828 8.828 8.828h8.828v114.759h-8.828c-4.875 0-8.828 3.953-8.828 8.828v17.655c0 4.875 3.953 8.828 8.828 8.828h229.517c4.875 0 8.828-3.953 8.828-8.828v-17.655c0-4.875-3.953-8.828-8.828-8.828h-8.828v-114.76c-.002 0 8.827 0 8.827 0z" fill="#faebc8"/><path d="m150.069 78.897h211.862v17.655h-211.862z" fill="#f5dcb4"/><path d="m150.069 176h211.862v17.655h-211.862z" fill="#f5dcb4"/><path d="m269.241 78.897h19.862v114.759h-19.862z" fill="#ebc9a0"/><path d="m222.897 78.897h19.862v114.759h-19.862z" fill="#ebc9a0"/><path d="m176.552 78.897h19.862v114.759h-19.862z" fill="#ebc9a0"/><path d="m315.586 78.897h19.862v114.759h-19.862z" fill="#ebc9a0"/><path d="m269.241 78.897h19.862v17.655h-19.862z" fill="#e1b487"/><path d="m222.897 78.897h19.862v17.655h-19.862z" fill="#e1b487"/><path d="m176.552 78.897h19.862v17.655h-19.862z" fill="#e1b487"/><path d="m315.586 78.897h19.862v17.655h-19.862z" fill="#e1b487"/><path d="m52.966 458.483h35.31v35.31h-35.31z" fill="#707487"/><path d="m132.414 467.316h-123.586c-4.875 0-8.828-3.953-8.828-8.828v-79.448c0-4.875 3.953-8.828 8.828-8.828h123.586c4.875 0 8.828 3.953 8.828 8.828v79.448c-.001 4.875-3.953 8.828-8.828 8.828z" fill="#7f8499"/><path d="m97.103 502.626h-52.965c-4.879 0-8.828-3.948-8.828-8.828 0-4.879 3.948-8.828 8.828-8.828h52.966c4.879 0 8.828 3.948 8.828 8.828-.001 4.88-3.949 8.828-8.829 8.828z" fill="#7f8499"/><path d="m17.655 387.862h105.931v61.793h-105.931z" fill="#faebc8"/><path d="m238.345 458.483h35.31v35.31h-35.31z" fill="#707487"/><path d="m317.793 467.316h-123.586c-4.875 0-8.828-3.953-8.828-8.828v-79.448c0-4.875 3.953-8.828 8.828-8.828h123.586c4.875 0 8.828 3.953 8.828 8.828v79.448c0 4.875-3.953 8.828-8.828 8.828z" fill="#7f8499"/><path d="m282.483 502.626h-52.966c-4.879 0-8.828-3.948-8.828-8.828 0-4.879 3.948-8.828 8.828-8.828h52.966c4.879 0 8.828 3.948 8.828 8.828-.001 4.88-3.949 8.828-8.828 8.828z" fill="#7f8499"/><path d="m203.034 387.862h105.931v61.793h-105.931z" fill="#faebc8"/><path d="m423.724 458.483h35.31v35.31h-35.31z" fill="#707487"/><path d="m503.172 467.316h-123.586c-4.875 0-8.828-3.953-8.828-8.828v-79.448c0-4.875 3.953-8.828 8.828-8.828h123.586c4.875 0 8.828 3.953 8.828 8.828v79.448c0 4.875-3.953 8.828-8.828 8.828z" fill="#7f8499"/><path d="m467.862 502.626h-52.966c-4.879 0-8.828-3.948-8.828-8.828 0-4.879 3.948-8.828 8.828-8.828h52.966c4.879 0 8.828 3.948 8.828 8.828s-3.948 8.828-8.828 8.828z" fill="#7f8499"/><path d="m388.414 387.862h105.931v61.793h-105.931z" fill="#faebc8"/></svg>