<svg enable-background="new 0 0 512 512" viewBox="0 0 512 512" xmlns="http://www.w3.org/2000/svg"><path d="m317.793 410.483h-123.586l-8.828 79.448h141.242z" fill="#5b5d6e"/><path d="m320.736 436.966-2.943-26.483h-123.586l-2.943 26.483z" fill="#464655"/><path d="m494.345 419.31h-476.69c-9.751 0-17.655-7.904-17.655-17.655v-317.793c0-9.751 7.904-17.655 17.655-17.655h476.69c9.751 0 17.655 7.904 17.655 17.655v317.793c0 9.751-7.904 17.655-17.655 17.655z" fill="#707487"/><path d="m194.909 66.207c4.294 29.934 29.97 52.966 61.091 52.966s56.798-23.031 61.091-52.966z" fill="#5b5d6e"/><path d="m476.69 392.828h-441.38c-4.875 0-8.828-3.953-8.828-8.828v-282.483c0-4.875 3.953-8.828 8.828-8.828h441.38c4.875 0 8.828 3.953 8.828 8.828v282.483c-.001 4.875-3.953 8.828-8.828 8.828z" fill="#e4eaf8"/><path d="m485.517 242.759h-194.207v-150.069h185.38c4.875 0 8.828 3.953 8.828 8.828v141.241z" fill="#7df5a5"/><path d="m485.517 242.759h-194.207v150.069h185.38c4.875 0 8.828-3.953 8.828-8.828v-141.241z" fill="#00c3ff"/><path d="m291.31 392.828h-256c-4.875 0-8.828-3.953-8.828-8.828v-282.483c0-4.875 3.953-8.828 8.828-8.828h256z" fill="#ffdc64"/><path d="m344.276 498.759h-176.552c-4.879 0-8.828-3.948-8.828-8.828s3.948-8.828 8.828-8.828h176.552c4.879 0 8.828 3.948 8.828 8.828s-3.949 8.828-8.828 8.828z" fill="#707487"/><path d="m238.345 392.828v-22.585c0-7.599-4.863-14.346-12.072-16.749l-28.821-9.607c-7.209-2.403-12.072-9.15-12.072-16.749v-22.585h-52.966v22.585c0 7.599-4.863 14.346-12.072 16.749l-28.821 9.607c-7.211 2.403-12.074 9.15-12.074 16.749v22.585z" fill="#d29b6e"/><path d="m226.273 353.493-28.821-9.608c-1.731-.577-3.308-1.431-4.734-2.461-8.097 9.751-20.158 16.093-33.822 16.093s-25.725-6.342-33.821-16.093c-1.426 1.03-3.002 1.885-4.734 2.461l-28.821 9.608c-7.21 2.403-12.073 9.15-12.073 16.749v22.585h158.897v-22.585c.001-7.599-4.862-14.346-12.071-16.749z" fill="#959cb5"/><ellipse cx="158.897" cy="167.724" fill="#694b4b" rx="35.31" ry="30.897"/><ellipse cx="158.897" cy="229.517" fill="#694b4b" rx="70.621" ry="66.207"/><path d="m175.96 165.337c-5.474-1.276-11.169-2.027-17.064-2.027-39.002 0-70.621 29.642-70.621 66.207 0 31.398 23.338 57.632 54.621 64.436 0-11.361 0-28.264 0-53.401.001-38.241 18.414-62.171 33.064-75.215z" fill="#5a4146"/><path d="m203.411 299.949-28.723 14.361c-9.941 4.97-21.642 4.97-31.583 0l-28.723-14.361c-5.28-2.639-8.89-7.744-9.623-13.601l-5.362-42.893c-.632-5.056 3.108-9.569 8.192-9.901 16.454-1.077 50.767-5.207 71.922-21.047 3.567-2.671 8.547-2.201 11.596 1.05l24.542 26.174c1.795 1.914 2.645 4.529 2.319 7.133l-4.936 39.484c-.73 5.858-4.341 10.962-9.621 13.601z" fill="#f0c087"/><path d="m215.65 239.731-24.543-26.174c-.814-.87-1.783-1.506-2.809-1.971-.337-.152-.703-.184-1.054-.292-.713-.218-1.43-.413-2.17-.445-.632-.026-1.26.055-1.886.168-.318.057-.641.06-.953.152-.953.286-1.881.708-2.721 1.337-21.191 15.866-55.588 19.983-72.008 21.053-5.113.333-8.742 4.812-8.106 9.896l5.362 42.892c.733 5.858 4.343 10.962 9.623 13.602l28.723 14.361c4.289 2.144 8.919 3.178 13.58 3.473l-10.783-21.567c-3.064-6.13-4.66-12.888-4.66-19.741v-22.735c0-4.109 2.849-7.597 6.836-8.594 12.089-3.022 24.524-7.443 35.322-13.997l19.371 20.66c2.862 3.053 6.91 6.528 13.806 6.196l1.393-11.142c.322-2.604-.529-5.218-2.323-7.132z" fill="#e6af78"/><path d="m414.897 353.103h-52.966c-9.751 0-17.655 7.904-17.655 17.655v22.069h88.276v-22.069c0-9.751-7.904-17.655-17.655-17.655z" fill="#ffdc64"/><path d="m388.414 366.345c-7.313 0-13.241-5.929-13.241-13.241v-13.241h26.483v13.241c-.001 7.312-5.93 13.241-13.242 13.241z" fill="#d29b6e"/><path d="m389.929 348.69h-3.029c-4.682 0-9.173-1.86-12.484-5.171l-7.313-7.313c-3.311-3.311-5.171-7.801-5.171-12.484v-27.998c0-9.751 7.904-17.655 17.655-17.655h17.655c9.751 0 17.655 7.904 17.655 17.655v27.998c0 4.682-1.86 9.173-5.171 12.484l-7.313 7.313c-3.311 3.31-7.802 5.171-12.484 5.171z" fill="#f0c087"/><path d="m397.241 278.069h-17.655c-9.751 0-17.655 7.904-17.655 17.655v8.828s26.483 0 52.966-8.828c0-9.751-7.904-17.655-17.656-17.655z" fill="#694b4b"/><path d="m414.897 203.034h-52.966c-9.751 0-17.655 7.904-17.655 17.655v22.069h88.276v-22.068c0-9.752-7.904-17.656-17.655-17.656z" fill="#707487"/><path d="m388.414 216.276c-7.313 0-13.241-5.929-13.241-13.241v-13.241h26.483v13.241c-.001 7.312-5.93 13.241-13.242 13.241z" fill="#d29b6e"/><path d="m389.929 198.621h-3.029c-4.682 0-9.173-1.86-12.484-5.171l-7.313-7.313c-3.311-3.311-5.171-7.801-5.171-12.484v-27.998c0-9.751 7.904-17.655 17.655-17.655h17.655c9.751 0 17.655 7.904 17.655 17.655v27.998c0 4.682-1.86 9.173-5.171 12.484l-7.313 7.313c-3.311 3.31-7.802 5.171-12.484 5.171z" fill="#f0c087"/><path d="m397.241 128h-17.655c-9.751 0-17.655 7.904-17.655 17.655v8.828s26.483 0 52.966-8.828c0-9.751-7.904-17.655-17.656-17.655z" fill="#694b4b"/><path d="m256 119.172c13.152 0 25.306-4.148 35.31-11.157v-15.325h-85.911c11.148 15.992 29.621 26.482 50.601 26.482z" fill="#ffc850"/><path d="m291.31 108.015c5.954-4.172 11.132-9.358 15.29-15.326h-15.29z" fill="#64dca0"/><circle cx="256" cy="57.379" fill="#959cb5" r="44.138"/><circle cx="256" cy="57.379" fill="#464655" r="17.655"/></svg>