<svg enable-background="new 0 0 512 512" viewBox="0 0 512 512" xmlns="http://www.w3.org/2000/svg"><path d="m220.69 512c-19.474 0-35.31-15.837-35.31-35.31v-185.38c0-9.732-7.923-17.655-17.655-17.655s-17.655 7.923-17.655 17.655v52.966c0 19.474-15.837 35.31-35.31 35.31s-35.31-15.837-35.31-35.31v-141.242h17.655v141.241c0 9.732 7.923 17.655 17.655 17.655s17.655-7.923 17.655-17.655v-52.965c0-19.474 15.837-35.31 35.31-35.31s35.31 15.837 35.31 35.31v185.38c0 9.732 7.923 17.655 17.655 17.655s17.655-7.923 17.655-17.655v-35.31h17.655v35.31c0 19.473-15.837 35.31-35.31 35.31z" fill="#d5dced"/><path d="m79.448 203.034h17.655v26.483h-17.655z" fill="#afb9d2"/><path d="m264.828 211.862h-247.173c-9.751 0-17.655-7.904-17.655-17.655v-176.552c0-9.751 7.904-17.655 17.655-17.655h247.172c9.751 0 17.655 7.904 17.655 17.655v176.552c.001 9.751-7.903 17.655-17.654 17.655z" fill="#ff5050"/><path d="m503.172 388.414h-17.655v-35.31c0-63.276-51.482-114.759-114.759-114.759s-114.758 51.482-114.758 114.758v35.31h-17.655v-35.31c0-73.017 59.396-132.414 132.414-132.414s132.414 59.396 132.414 132.414v35.311z" fill="#464655"/><path d="m273.655 459.034h-17.655c-14.626 0-26.483-11.857-26.483-26.483v-35.31c0-14.626 11.857-26.483 26.483-26.483h17.655c4.875 0 8.828 3.953 8.828 8.828v70.621c0 4.875-3.953 8.827-8.828 8.827z" fill="#959cb5"/><path d="m485.517 459.034h-17.655c-4.875 0-8.828-3.953-8.828-8.828v-70.621c0-4.875 3.953-8.828 8.828-8.828h17.655c14.626 0 26.483 11.857 26.483 26.483v35.31c0 14.628-11.857 26.484-26.483 26.484z" fill="#959cb5"/><path d="m194.207 35.31h-105.931c-19.501 0-35.31 15.809-35.31 35.31v70.621c0 19.501 15.809 35.31 35.31 35.31h105.931c19.501 0 35.31-15.809 35.31-35.31v-70.62c0-19.502-15.809-35.311-35.31-35.311zm-24.619 78.516-42.054 21.027c-5.869 2.935-12.776-1.333-12.776-7.895v-42.054c0-6.562 6.905-10.83 12.776-7.896l42.054 21.027c6.506 3.253 6.506 12.538 0 15.791z" fill="#fff"/></svg>