<svg enable-background="new 0 0 512 512" viewBox="0 0 512 512" xmlns="http://www.w3.org/2000/svg"><path d="m494.345 423.724h-476.69c-9.751 0-17.655-7.904-17.655-17.655v-300.138c0-9.751 7.904-17.655 17.655-17.655h476.69c9.751 0 17.655 7.904 17.655 17.655v300.138c0 9.751-7.904 17.655-17.655 17.655z" fill="#e4eaf8"/><path d="m450.207 397.241h-388.414c-4.875 0-8.828-3.953-8.828-8.828v-264.827c0-4.875 3.953-8.828 8.828-8.828h388.414c4.875 0 8.828 3.953 8.828 8.828v264.828c-.001 4.875-3.953 8.827-8.828 8.827z" fill="#ff5050"/><path d="m26.483 273.655c-4.879 0-8.828-3.953-8.828-8.828v-17.655c0-4.875 3.948-8.828 8.828-8.828s8.828 3.953 8.828 8.828v17.655c-.001 4.876-3.949 8.828-8.828 8.828z" fill="#afb9d2"/><path d="m485.517 282.483c-4.879 0-8.828-3.953-8.828-8.828v-35.31c0-4.875 3.948-8.828 8.828-8.828s8.828 3.953 8.828 8.828v35.31c0 4.875-3.948 8.828-8.828 8.828z" fill="#afb9d2"/><path d="m485.603 132.414c-4.879 0-8.871-3.953-8.871-8.828s3.905-8.828 8.785-8.828h.086c4.879 0 8.828 3.953 8.828 8.828s-3.948 8.828-8.828 8.828z" fill="#959cb5"/><path d="m26.483 220.69c-4.879 0-8.828-3.953-8.828-8.828v-8.828c0-4.875 3.948-8.828 8.828-8.828s8.828 3.953 8.828 8.828v8.828c-.001 4.875-3.949 8.828-8.828 8.828z" fill="#c7cfe2"/><path d="m26.483 317.793c-4.879 0-8.828-3.953-8.828-8.828v-8.828c0-4.875 3.948-8.828 8.828-8.828s8.828 3.953 8.828 8.828v8.828c-.001 4.876-3.949 8.828-8.828 8.828z" fill="#c7cfe2"/><path d="m308.966 158.897h-105.932c-19.501 0-35.31 15.809-35.31 35.31v70.621c0 19.501 15.809 35.31 35.31 35.31h105.931c19.501 0 35.31-15.809 35.31-35.31v-70.621c.001-19.501-15.808-35.31-35.309-35.31zm-24.62 78.515-42.053 21.027c-5.869 2.935-12.776-1.333-12.776-7.895v-42.054c0-6.562 6.905-10.83 12.776-7.896l42.053 21.027c6.506 3.253 6.506 12.538 0 15.791z" fill="#fff"/><path d="m423.724 353.103h-335.448c-4.875 0-8.828-3.953-8.828-8.828 0-4.875 3.953-8.828 8.828-8.828h335.448c4.875 0 8.828 3.953 8.828 8.828 0 4.876-3.953 8.828-8.828 8.828z" fill="#c84146"/><path d="m158.897 353.103h-70.621c-4.875 0-8.828-3.953-8.828-8.828 0-4.875 3.953-8.828 8.828-8.828h70.621z" fill="#e4eaf8"/><circle cx="158.897" cy="344.276" fill="#fff" r="17.655"/></svg>