<svg enable-background="new 0 0 512 512" viewBox="0 0 512 512" xmlns="http://www.w3.org/2000/svg"><path d="m450.207 88.276h-388.414c-14.626 0-26.483 11.857-26.483 26.483v282.483h441.38v-282.483c0-14.627-11.857-26.483-26.483-26.483z" fill="#959cb5"/><path d="m441.379 361.931h-370.758c-4.875 0-8.828-3.953-8.828-8.828v-229.517c0-4.875 3.953-8.828 8.828-8.828h370.759c4.875 0 8.828 3.953 8.828 8.828v229.517c-.001 4.875-3.954 8.828-8.829 8.828z" fill="#fff"/><path d="m158.897 264.828h52.966v35.31h-52.966z" fill="#d29b6e"/><path d="m145.899 214.794 2.975 35.708c.742 8.896 6.067 16.762 14.051 20.755l11.012 5.506c7.201 3.601 15.678 3.601 22.879 0l11.012-5.506c7.985-3.992 13.311-11.859 14.051-20.755l2.975-35.708c1.719-20.586-14.527-38.242-35.185-38.242h-8.583c-20.656 0-36.902 17.656-35.187 38.242z" fill="#f0c087"/><path d="m252.756 304.941-34.857-11.619c-3.605-1.202-6.036-4.575-6.036-8.374l-26.484 24.018-26.483-24.018c0 3.799-2.432 7.172-6.036 8.374l-34.857 11.619c-7.21 2.403-12.072 9.15-12.072 16.749v40.241h158.897v-40.241c0-7.599-4.863-14.345-12.072-16.749z" fill="#00c3ff"/><path d="m503.172 423.724h-494.344c-4.875 0-8.828-3.953-8.828-8.828v-17.655c0-4.875 3.953-8.828 8.828-8.828h494.345c4.875 0 8.828 3.953 8.828 8.828v17.655c-.001 4.876-3.954 8.828-8.829 8.828z" fill="#707487"/><path d="m219.207 286.414c-2.707-4.061-8.181-5.155-12.242-2.449l-21.586 14.388-21.587-14.388c-4.077-2.707-9.543-1.612-12.242 2.449-2.707 4.061-1.612 9.535 2.449 12.242l22.552 15.033v48.242h17.655v-48.242l22.552-15.034c4.061-2.707 5.155-8.181 2.449-12.241z" fill="#00aaf0"/><path d="m317.793 238.345h-8.828c-3.345 0-6.397-1.888-7.896-4.879l-15.215-30.431h-12.199c-4.879 0-8.828-3.948-8.828-8.828s3.948-8.828 8.828-8.828h17.655c3.345 0 6.397 1.888 7.896 4.879l14.189 28.388 32.215-63.733c1.5-2.969 4.552-4.845 7.88-4.845h61.406c4.879 0 8.828 3.953 8.828 8.828 0 4.879-3.948 8.828-8.828 8.828h-55.975l-33.25 65.775c-1.499 2.975-4.55 4.846-7.878 4.846z" fill="#ff5050"/><path d="m399.724 207.448 13.241-16.552c3.043-3.81 2.422-9.362-1.379-12.414-3.819-3.043-9.354-2.406-12.414 1.379l-10.759 13.449-10.759-13.449c-3.052-3.801-8.595-4.431-12.414-1.379-3.801 3.052-4.423 8.604-1.379 12.414l13.241 16.552-13.24 16.552c-3.043 3.81-2.422 9.362 1.379 12.414 1.63 1.302 3.577 1.931 5.508 1.931 2.595 0 5.155-1.138 6.905-3.31l10.759-13.449 10.759 13.449c1.75 2.182 4.31 3.31 6.905 3.31 1.931 0 3.88-.629 5.508-1.931 3.801-3.052 4.423-8.604 1.379-12.414z" fill="#ff5050"/><path d="m308.966 282.483h-8.828c-4.879 0-8.828-3.948-8.828-8.828 0-4.879 3.948-8.828 8.828-8.828h8.828c4.879 0 8.828 3.948 8.828 8.828-.001 4.88-3.949 8.828-8.828 8.828z" fill="#7f8499"/><path d="m414.897 282.483h-70.621c-4.879 0-8.828-3.948-8.828-8.828 0-4.879 3.948-8.828 8.828-8.828h70.621c4.879 0 8.828 3.948 8.828 8.828-.001 4.88-3.949 8.828-8.828 8.828z" fill="#959cb5"/><path d="m397.241 317.793h-52.966c-4.879 0-8.828-3.948-8.828-8.828s3.948-8.828 8.828-8.828h52.966c4.879 0 8.828 3.948 8.828 8.828s-3.948 8.828-8.828 8.828z" fill="#959cb5"/><path d="m308.966 317.793h-8.828c-4.879 0-8.828-3.948-8.828-8.828s3.948-8.828 8.828-8.828h8.828c4.879 0 8.828 3.948 8.828 8.828s-3.949 8.828-8.828 8.828z" fill="#7f8499"/><path d="m282.483 406.069h-52.966c-9.751 0-17.655-7.904-17.655-17.655h88.276c0 9.751-7.904 17.655-17.655 17.655z" fill="#5b5d6e"/><path d="m192.401 276.762-6.103-5.506c-4.426-3.992-7.378-11.859-7.788-20.755l-1.65-35.708c-.883-19.112 6.849-35.507 17.116-37.784-1.429-.175-2.826-.458-4.306-.458h-8.583c-20.658 0-36.904 17.655-35.188 38.242l2.975 35.708c.742 8.896 6.067 16.762 14.051 20.755l11.012 5.506c6.378 3.189 13.71 3.386 20.318.926-.74-.283-1.463-.572-1.854-.926z" fill="#e6af78"/><g fill="#00aaf0"><path d="m110.46 310.155c-2.767 3.149-4.529 7.139-4.529 11.535v40.241h26.483v-26.483c0-5.557-2.616-10.79-7.062-14.124z"/><path d="m260.299 310.155c2.767 3.149 4.529 7.14 4.529 11.535v40.241h-26.483v-26.483c0-5.557 2.616-10.79 7.062-14.124z"/></g></svg>