<svg enable-background="new 0 0 512 512" viewBox="0 0 512 512" xmlns="http://www.w3.org/2000/svg"><path d="m423.724 0h-335.448c-9.75 0-17.655 7.904-17.655 17.655v211.862c0 9.75 7.905 17.655 17.655 17.655h97.103v44.138h141.241v-44.138h97.103c9.75 0 17.655-7.905 17.655-17.655v-211.862c.001-9.751-7.904-17.655-17.654-17.655z" fill="#5b5d6e"/><path d="m88.276 17.655h335.448v211.862h-335.448z" fill="#ff5050"/><path d="m467.862 308.966v79.448h-423.724v-79.448h-17.655v194.206h17.655v-97.103h423.724v97.103h17.655v-194.206z" fill="#707487"/><path d="m26.483 308.966h17.655v26.483h-17.655z" fill="#5b5d6e"/><path d="m467.862 308.966h17.655v26.483h-17.655z" fill="#5b5d6e"/><path d="m388.414 185.379h-203.035v17.655h203.034c4.879 0 8.828-3.948 8.828-8.828s-3.948-8.827-8.827-8.827z" fill="#c84146"/><path d="m123.586 185.379c-4.879 0-8.828 3.948-8.828 8.828s3.948 8.828 8.828 8.828h44.138v-17.655h-44.138z" fill="#e4eaf8"/><circle cx="176.552" cy="194.207" fill="#fff" r="17.655"/><path d="m308.966 44.138h-105.932c-9.75 0-17.655 7.904-17.655 17.655v70.621c0 9.75 7.905 17.655 17.655 17.655h105.931c9.75 0 17.655-7.905 17.655-17.655v-70.621c.001-9.751-7.904-17.655-17.654-17.655zm-32.792 56.75-31.145 18.688c-2.942 1.766-6.685-.354-6.685-3.785v-37.376c0-3.431 3.743-5.549 6.685-3.785l31.145 18.687c2.858 1.716 2.858 5.857 0 7.571z" fill="#fff"/><path d="m485.517 317.793h-459.034c-4.875 0-8.828-3.953-8.828-8.828v-17.655c0-4.875 3.953-8.828 8.828-8.828h459.034c4.875 0 8.828 3.953 8.828 8.828v17.655c0 4.876-3.953 8.828-8.828 8.828z" fill="#f5dcb4"/><path d="m44.138 512h-17.655c-4.879 0-8.828-3.948-8.828-8.828 0-4.879 3.948-8.828 8.828-8.828h17.655c4.879 0 8.828 3.948 8.828 8.828s-3.949 8.828-8.828 8.828z" fill="#5b5d6e"/><path d="m485.517 512h-17.655c-4.879 0-8.828-3.948-8.828-8.828 0-4.879 3.948-8.828 8.828-8.828h17.655c4.879 0 8.828 3.948 8.828 8.828s-3.948 8.828-8.828 8.828z" fill="#5b5d6e"/><path d="m185.379 247.172h141.241v17.655h-141.241z" fill="#464655"/></svg>