<svg enable-background="new 0 0 512 512" viewBox="0 0 512 512" xmlns="http://www.w3.org/2000/svg"><path d="m432.552 441.379h-282.483c-14.626 0-26.483-11.857-26.483-26.483v-388.413c0-14.626 11.857-26.483 26.483-26.483h282.483c14.626 0 26.483 11.857 26.483 26.483v388.414c-.001 14.626-11.857 26.482-26.483 26.482z" fill="#c7cfe2"/><path d="m432.552 264.828h-282.483c-4.875 0-8.828-3.953-8.828-8.828v-229.517c0-4.875 3.953-8.828 8.828-8.828h282.483c4.875 0 8.828 3.953 8.828 8.828v229.517c-.001 4.875-3.953 8.828-8.828 8.828z" fill="#00c3ff"/><path d="m397.241 476.69h-282.482c-14.626 0-26.483-11.857-26.483-26.483v-388.414c0-14.626 11.857-26.483 26.483-26.483h282.483c14.626 0 26.483 11.857 26.483 26.483v388.414c-.001 14.626-11.857 26.483-26.484 26.483z" fill="#d5dced"/><path d="m397.241 300.138h-282.482c-4.875 0-8.828-3.953-8.828-8.828v-229.517c0-4.875 3.953-8.828 8.828-8.828h282.483c4.875 0 8.828 3.953 8.828 8.828v229.517c-.001 4.875-3.954 8.828-8.829 8.828z" fill="#7df5a5"/><path d="m361.931 512h-282.483c-14.626 0-26.483-11.857-26.483-26.483v-388.414c0-14.626 11.857-26.483 26.483-26.483h282.483c14.626 0 26.483 11.857 26.483 26.483v388.414c0 14.626-11.857 26.483-26.483 26.483z" fill="#e4eaf8"/><path d="m361.931 335.448h-282.483c-4.875 0-8.828-3.953-8.828-8.828v-229.517c0-4.875 3.953-8.828 8.828-8.828h282.483c4.875 0 8.828 3.953 8.828 8.828v229.517c0 4.876-3.953 8.828-8.828 8.828z" fill="#ffc850"/><path d="m199.604 133.556c-3.448-12.366-14.811-21.004-27.647-21.004h-8.466c-12.836 0-24.199 8.638-27.647 21.013l-40.542 145.961c-1.63 5.879 1.802 11.957 7.672 13.587 5.854 1.638 11.957-1.793 13.587-7.672l10.016-36.061h82.296l10.016 36.061c1.354 4.879 5.793 8.077 10.621 8.077.983 0 1.974-.129 2.966-.405 5.87-1.63 9.302-7.706 7.672-13.587zm-66.897 93.754 24.396-87.832c.793-2.862 3.423-4.857 6.388-4.857h8.466c2.966 0 5.594 1.996 6.388 4.85l24.397 87.84h-70.035z" fill="#fff"/><path d="m337.655 271.672v-77.465c0-6.094-4.94-11.034-11.034-11.034-4.821 0-8.806 3.135-10.31 7.442-7.228-4.661-15.782-7.442-25.001-7.442-25.551 0-46.345 20.793-46.345 46.345v17.655c0 25.551 20.793 46.345 46.345 46.345 10.301 0 19.733-3.493 27.437-9.202 3.533 5.515 9.682 9.202 16.701 9.202 6.094 0 11.034-4.94 11.034-11.034.001-5.338-3.792-9.794-8.827-10.812zm-46.345-.224c-13.388 0-24.276-10.888-24.276-24.276v-17.655c0-13.388 10.888-24.276 24.276-24.276s24.276 10.888 24.276 24.276v17.655c0 13.389-10.888 24.276-24.276 24.276z" fill="#fff"/><path d="m335.448 397.241h-229.517c-4.879 0-8.828-3.948-8.828-8.828s3.948-8.828 8.828-8.828h229.517c4.879 0 8.828 3.948 8.828 8.828s-3.948 8.828-8.828 8.828z" fill="#7f8499"/><path d="m247.172 467.862h-141.241c-4.879 0-8.828-3.948-8.828-8.828s3.948-8.828 8.828-8.828h141.241c4.879 0 8.828 3.948 8.828 8.828s-3.948 8.828-8.828 8.828z" fill="#7f8499"/><g fill="#707487"><path d="m158.897 432.552h-52.966c-4.879 0-8.828-3.948-8.828-8.828 0-4.879 3.948-8.828 8.828-8.828h52.966c4.879 0 8.828 3.948 8.828 8.828-.001 4.88-3.949 8.828-8.828 8.828z"/><path d="m335.448 432.552h-141.241c-4.879 0-8.828-3.948-8.828-8.828 0-4.879 3.948-8.828 8.828-8.828h141.241c4.879 0 8.828 3.948 8.828 8.828s-3.948 8.828-8.828 8.828z"/></g></svg>