<svg version="1.1" id="Capa_1" xmlns="http://www.w3.org/2000/svg" xmlns:xlink="http://www.w3.org/1999/xlink" x="0" y="0" viewBox="0 0 512 512" xml:space="preserve" enable-background="new 0 0 512 512"><style type="text/css">.st0{fill:#d23333}</style><g><path class="st0" d="M116.8,337c-25.9,0-46.9,21.7-46.9,48.5c0,26.8,21,48.5,46.9,48.5s46.9-21.7,46.9-48.5 C163.7,358.7,142.7,337,116.8,337z M116.8,411.6c-14,0-25.5-11.9-25.5-26.5s11.5-26.5,25.5-26.5s25.5,11.9,25.5,26.5 C142.4,400,131.2,411.6,116.8,411.6z"/><ellipse class="st0" cx="116.8" cy="385.5" rx="4.5" ry="4.6"/><path class="st0" d="M388.6,337c-25.9,0-46.9,21.7-46.9,48.5c0,26.8,21,48.5,46.9,48.5s46.9-21.7,46.9-48.5 C435.5,358.7,414.5,337,388.6,337z M388.6,411.6c-14,0-25.5-11.9-25.5-26.5s11.5-26.5,25.5-26.5s25.5,11.9,25.5,26.5 C414.2,400,402.6,411.6,388.6,411.6z"/><ellipse class="st0" cx="388.6" cy="385.5" rx="4.5" ry="4.6"/><path class="st0" d="M60.5,385.5c0-32.4,25-58.3,56.3-58.3s56.3,25.9,56.3,58.3h159.2c0-32.4,25-58.3,56.3-58.3 s56.3,25.9,56.3,58.3l58.4-1.3c0,0,8.7-3,8.7-20.4c0-17.5-11.5-19.1-11.5-19.1l-27.2-0.4c0,0-0.9-17.8-25.9-43.9 c-24.7-26.5-54.3-22.1-54.3-22.1L6.1,280v79.2H7c0,0-6.6-3.5-6.9,12.7c-0.4,15.8,6.6,13.2,6.6,13.2L60.5,385.5z"/><rect x="175.6" y="355.3" class="st0" width="157.5" height="3.5"/><rect x="11.5" y="355.3" class="st0" width="50.2" height="3.5"/><path class="st0" d="M503.8,263.4h-5l-2.1-27.7c0,0-16.5-54.1-52.7-92.8c-0.9-0.9,8.2,0,7.4-0.9c-37.8-39.2-147.7-32-195.3-33.6 s-225.4,11-243,27.7c-7.8,7.2-6.6,17.8-6.6,17.8v111.2h395.7c0,0,22.2-3.5,53.4,22.6c23.4,19.6,29.1,49.4,29.1,49.4h14l-0.4-43.9 l6.2,0.4C510.8,283.8,508.3,266.7,503.8,263.4z M136.2,237c0,2.2-1.6,3.9-3.7,3.9H54c-2.1,0-3.7-1.7-3.7-3.9v-80.5 c0-2.2,1.6-3.9,3.7-3.9h78.5c2.1,0,3.7,1.7,3.7,3.9V237z M243,237c0,2.2-1.6,3.9-3.7,3.9h-78.5c-2.1,0-3.7-1.7-3.7-3.9v-80.5 c0-2.2,1.6-3.9,3.7-3.9h78.5c2.1,0,3.7,1.7,3.7,3.9V237z M349.9,237c0,2.2-1.6,3.9-3.7,3.9h-78.5c-2.1,0-3.7-1.7-3.7-3.9v-80.5 c0-2.2,1.6-3.9,3.7-3.9h78.6c2.1,0,3.7,1.7,3.7,3.9V237H349.9z M466.7,241.2h-96.6c-4.1,0-7.4-3.5-7.4-7.7v-73.7 c0-4.2,3.3-7.7,7.4-7.7h45.3c27.5,0,58.4,56.2,58.4,70.7C473.8,237,470.5,241.2,466.7,241.2z"/></g></svg>