<svg enable-background="new 0 0 512 512" viewBox="0 0 512 512" xmlns="http://www.w3.org/2000/svg"><path d="m220.69 414.897h70.621v52.966h-70.621z" fill="#464655"/><circle cx="256" cy="211.862" fill="#707487" r="211.862"/><circle cx="256" cy="211.862" fill="#afb9d2" r="88.276"/><circle cx="256" cy="211.862" fill="#464655" r="61.793"/><circle cx="256" cy="211.862" fill="#5b5d6e" r="35.31"/><circle cx="256" cy="61.793" fill="#9bf57d" r="17.655"/><path d="m361.931 512h-211.862c-4.875 0-8.828-3.953-8.828-8.828v-19.402c0-4.138 2.873-7.72 6.913-8.617l72.535-16.119h70.621l72.535 16.119c4.039.897 6.913 4.48 6.913 8.617v19.402c.001 4.875-3.952 8.828-8.827 8.828z" fill="#707487"/><path d="m282.483 220.69c-4.879 0-8.828-3.948-8.828-8.828 0-9.732-7.923-17.655-17.655-17.655-4.879 0-8.828-3.948-8.828-8.828 0-4.879 3.948-8.828 8.828-8.828 19.474 0 35.31 15.837 35.31 35.31 0 4.881-3.948 8.829-8.827 8.829z" fill="#d5dced"/><g fill="#5b5d6e"><path d="m344.276 388.414c-117.009 0-211.862-94.854-211.862-211.862 0-72.141 36.086-135.822 91.161-174.082-101.615 15.607-179.437 103.41-179.437 209.392 0 117.009 94.854 211.862 211.862 211.862 44.867 0 86.447-13.985 120.701-37.78-10.571 1.623-21.399 2.47-32.425 2.47z"/><path d="m229.517 503.172v-19.402c0-4.138 2.1-7.72 5.052-8.618l53.006-16.118h-66.885l-72.535 16.119c-4.039.897-6.913 4.48-6.913 8.618v19.401c0 4.875 3.953 8.828 8.828 8.828h85.899c-3.564 0-6.452-3.953-6.452-8.828z"/></g></svg>