<svg enable-background="new 0 0 512.001 512.001" viewBox="0 0 512.001 512.001" xmlns="http://www.w3.org/2000/svg"><path d="m370.759 432.553h-353.104c-9.751 0-17.655-7.904-17.655-17.656v-300.138c0-9.751 7.904-17.655 17.655-17.655h353.103c9.751 0 17.655 7.904 17.655 17.655v300.138c.001 9.752-7.903 17.656-17.654 17.656z" fill="#e4eaf8"/><path d="m388.414 194.208-127.371 127.37-22.635 48.505c-2.805 6.012 3.43 12.247 9.441 9.441l48.504-22.636 92.061-92.06z" fill="#d5dced"/><path d="m370.759 97.104h-335.449v26.483c0 4.875 3.953 8.828 8.828 8.828h344.276v-17.655c0-9.751-7.904-17.656-17.655-17.656z" fill="#d5dced"/><path d="m317.793 97.104h35.31v35.31h-35.31z" fill="#fff082"/><path d="m282.483 97.104h35.31v35.31h-35.31z" fill="#ff5050"/><path d="m388.414 132.415h-35.31v-35.31h17.655c9.751 0 17.655 7.904 17.655 17.655z" fill="#a0ffb4"/><path d="m361.931 414.897h-335.448c-4.875 0-8.828-3.953-8.828-8.828v-247.172c0-4.875 3.953-8.828 8.828-8.828h335.448c4.875 0 8.828 3.953 8.828 8.828v247.173c0 4.875-3.953 8.827-8.828 8.827z" fill="#fff"/><path d="m370.759 211.863-109.716 109.716-22.635 48.505c-2.805 6.012 3.43 12.247 9.441 9.441l48.504-22.636 74.405-74.406v-70.62z" fill="#e4eaf8"/><path d="m229.565 371.327 42.868-20.004c3.73-1.74 7.126-4.119 10.036-7.029l226.946-226.946c3.447-3.447 3.447-9.037 0-12.484l-22.826-22.826c-3.447-3.447-9.037-3.447-12.484 0l-226.947 226.945c-2.91 2.91-5.289 6.306-7.029 10.036l-20.004 42.868c-2.807 6.01 3.428 12.245 9.44 9.44z" fill="#5b5d6e"/><path d="m471.519 119.93-249.981 249.982c1.96 1.96 5.021 2.817 8.026 1.415l42.868-20.004c3.73-1.74 7.126-4.119 10.036-7.03l206.707-206.706z" fill="#464655"/><path d="m185.379 176.553h-17.655c-4.879 0-8.828 3.953-8.828 8.828 0 3.486 2.063 6.435 4.998 7.869l-22.653 56.64-22.275-55.681h4.62c4.879 0 8.828-3.953 8.828-8.828s-3.948-8.828-8.828-8.828h-17.655c-2.931 0-5.664 1.452-7.31 3.88-1.638 2.426-1.974 5.508-.888 8.228l7.514 18.786-16.971 42.438-22.275-55.677h4.62c4.879 0 8.828-3.953 8.828-8.828s-3.948-8.828-8.828-8.828h-17.655c-2.931 0-5.664 1.452-7.31 3.88-1.638 2.426-1.974 5.508-.888 8.228l35.31 88.276c1.345 3.349 4.587 5.547 8.199 5.547s6.854-2.198 8.199-5.547l18.284-45.713 18.285 45.713c1.345 3.349 4.586 5.547 8.199 5.547s6.854-2.198 8.199-5.547l33.09-82.729h2.848c4.879 0 8.828-3.953 8.828-8.828s-3.95-8.826-8.83-8.826z" fill="#464655"/><path d="m176.552 335.449h-123.586c-4.879 0-8.828-3.953-8.828-8.828s3.948-8.828 8.828-8.828h123.586c4.879 0 8.828 3.953 8.828 8.828s-3.949 8.828-8.828 8.828z" fill="#959cb5"/><path d="m317.793 194.208h-88.276c-4.879 0-8.828-3.953-8.828-8.828s3.948-8.828 8.828-8.828h88.276c4.879 0 8.828 3.953 8.828 8.828s-3.948 8.828-8.828 8.828z" fill="#7f8499"/><path d="m282.483 229.518h-52.966c-4.879 0-8.828-3.953-8.828-8.828s3.948-8.828 8.828-8.828h52.966c4.879 0 8.828 3.953 8.828 8.828s-3.949 8.828-8.828 8.828z" fill="#707487"/><path d="m141.241 370.759h-88.275c-4.879 0-8.828-3.953-8.828-8.828s3.948-8.828 8.828-8.828h88.276c4.879 0 8.828 3.953 8.828 8.828-.001 4.876-3.949 8.828-8.829 8.828z" fill="#959cb5"/><path d="m291.31 335.449-35.31-35.31-8.843 8.843c-2.91 2.91-5.289 6.306-7.029 10.036l-20.004 42.867c-2.805 6.012 3.43 12.246 9.441 9.441l42.867-20.004c3.73-1.74 7.126-4.119 10.036-7.03z" fill="#7f8499"/><path d="m273.655 317.794-52.117 52.117c1.96 1.96 5.021 2.817 8.026 1.415l42.868-20.004c3.73-1.74 7.126-4.119 10.036-7.03l8.842-8.842z" fill="#707487"/><path d="m486.589 82.034c-3.448-3.448-9.036-3.448-12.484 0l-20.241 20.241 35.31 35.31 20.241-20.241c3.448-3.448 3.448-9.037 0-12.484z" fill="#7f8499"/><path d="m509.415 104.86-11.413-11.413-26.483 26.483 17.655 17.655 20.241-20.241c3.447-3.446 3.447-9.036 0-12.484z" fill="#707487"/></svg>