<svg enable-background="new 0 0 512 512" viewBox="0 0 512 512" xmlns="http://www.w3.org/2000/svg"><path d="m97.103 17.655c0-9.751 7.904-17.655 17.656-17.655h264.828l88.276 88.276v406.069c0 9.751-7.904 17.655-17.655 17.655h-335.449c-9.751 0-17.655-7.904-17.655-17.655v-476.69z" fill="#e4eaf8"/><path d="m300.138 467.862h-203.035v-158.896h203.034c19.501 0 35.31 15.809 35.31 35.31v88.276c.001 19.501-15.808 35.31-35.309 35.31z" fill="#d5dced"/><path d="m379.586 0v70.621c0 9.75 7.905 17.655 17.655 17.655h70.621z" fill="#d5dced"/><path d="m300.138 450.207h-238.345c-9.751 0-17.655-7.904-17.655-17.655v-88.276c0-9.751 7.904-17.655 17.655-17.655h238.345c9.751 0 17.655 7.904 17.655 17.655v88.276c0 9.751-7.904 17.655-17.655 17.655z" fill="#9bf57d"/><g fill="#fff"><path d="m138.655 355.69c-3.448-3.448-9.035-3.448-12.483 0l-20.241 20.242-20.242-20.242c-3.448-3.448-9.035-3.448-12.483 0s-3.448 9.035 0 12.483l20.243 20.241-20.242 20.242c-3.448 3.448-3.448 9.035 0 12.483 1.724 1.724 3.982 2.585 6.241 2.585s4.518-.862 6.241-2.586l20.242-20.241 20.242 20.242c1.725 1.725 3.982 2.586 6.241 2.586s4.518-.862 6.241-2.586c3.448-3.448 3.448-9.035 0-12.483l-20.241-20.242 20.242-20.242c3.447-3.448 3.447-9.034-.001-12.482z"/><path d="m211.862 406.069h-35.31v-44.138c0-4.879-3.948-8.828-8.828-8.828s-8.828 3.948-8.828 8.828v52.966c0 4.879 3.948 8.828 8.828 8.828h44.138c4.879 0 8.828-3.948 8.828-8.828s-3.948-8.828-8.828-8.828z"/><path d="m262.552 379.853c-11.242-2.81-14.362-4.733-15.138-5.759 1.483-1.215 5.879-3.336 13-3.336 8.025 0 13.319 2.767 14.06 3.715 2.06 4.431 7.31 6.37 11.724 4.294 4.423-2.051 6.345-7.302 4.294-11.724-4.474-9.63-18.328-13.94-30.078-13.94-17.612 0-30.897 8.776-30.897 20.414 0 16.276 18.001 20.776 28.759 23.457 11.242 2.81 14.362 4.733 15.138 5.759-1.483 1.215-5.88 3.336-13.001 3.336-7.914 0-13.164-2.681-14.13-3.862-2.094-4.31-7.276-6.182-11.656-4.147-4.423 2.051-6.345 7.302-4.294 11.724 4.476 9.63 18.329 13.94 30.079 13.94 17.612 0 30.897-8.776 30.897-20.414.001-16.276-17.998-20.775-28.757-23.457z"/></g><path d="m194.207 256h35.31c4.875 0 8.828-3.953 8.828-8.828v-8.828c0-4.875-3.953-8.828-8.828-8.828h-35.31c-4.875 0-8.828 3.953-8.828 8.828v8.828c0 4.875 3.953 8.828 8.828 8.828z" fill="#9bf57d"/><path d="m194.207 211.862h35.31c4.875 0 8.828-3.953 8.828-8.828v-8.828c0-4.875-3.953-8.828-8.828-8.828h-35.31c-4.875 0-8.828 3.953-8.828 8.828v8.828c0 4.876 3.953 8.828 8.828 8.828z" fill="#9bf57d"/><path d="m194.207 167.724h35.31c4.875 0 8.828-3.953 8.828-8.828v-8.828c0-4.875-3.953-8.828-8.828-8.828h-35.31c-4.875 0-8.828 3.953-8.828 8.828v8.828c0 4.876 3.953 8.828 8.828 8.828z" fill="#7dc86e"/><path d="m264.828 256h35.31c4.875 0 8.828-3.953 8.828-8.828v-8.828c0-4.875-3.953-8.828-8.828-8.828h-35.31c-4.875 0-8.828 3.953-8.828 8.828v8.828c0 4.875 3.953 8.828 8.828 8.828z" fill="#afb9d2"/><path d="m264.828 211.862h35.31c4.875 0 8.828-3.953 8.828-8.828v-8.828c0-4.875-3.953-8.828-8.828-8.828h-35.31c-4.875 0-8.828 3.953-8.828 8.828v8.828c0 4.876 3.953 8.828 8.828 8.828z" fill="#afb9d2"/><path d="m264.828 167.724h35.31c4.875 0 8.828-3.953 8.828-8.828v-8.828c0-4.875-3.953-8.828-8.828-8.828h-35.31c-4.875 0-8.828 3.953-8.828 8.828v8.828c0 4.876 3.953 8.828 8.828 8.828z" fill="#7dc86e"/><path d="m335.448 256h35.31c4.875 0 8.828-3.953 8.828-8.828v-8.828c0-4.875-3.953-8.828-8.828-8.828h-35.31c-4.875 0-8.828 3.953-8.828 8.828v8.828c.001 4.875 3.953 8.828 8.828 8.828z" fill="#afb9d2"/><path d="m335.448 211.862h35.31c4.875 0 8.828-3.953 8.828-8.828v-8.828c0-4.875-3.953-8.828-8.828-8.828h-35.31c-4.875 0-8.828 3.953-8.828 8.828v8.828c.001 4.876 3.953 8.828 8.828 8.828z" fill="#afb9d2"/><path d="m335.448 167.724h35.31c4.875 0 8.828-3.953 8.828-8.828v-8.828c0-4.875-3.953-8.828-8.828-8.828h-35.31c-4.875 0-8.828 3.953-8.828 8.828v8.828c.001 4.876 3.953 8.828 8.828 8.828z" fill="#7dc86e"/></svg>